%TF.GenerationSoftware,KiCad,Pcbnew,10.0.5*%
%TF.CreationDate,2026-08-19T21:22:08-05:00*%
%TF.ProjectId,SD_Breakout,53445f42-7265-4616-9b6f-75742e6b6963,rev?*%
%TF.SameCoordinates,Original*%
%TF.FileFunction,Copper,L2,Inr*%
%TF.FilePolarity,Positive*%
%FSLAX46Y46*%
G04 Gerber Fmt 4.6, Leading zero omitted, Abs format (unit mm)*
G04 Created by KiCad (PCBNEW 10.0.5) date 2026-08-19 21:22:08*
%MOMM*%
%LPD*%
G01*
G04 APERTURE LIST*
%TA.AperFunction,ViaPad*%
%ADD10C,1.000000*%
%TD*%
%TA.AperFunction,ViaPad*%
%ADD11C,0.400000*%
%TD*%
%TA.AperFunction,ViaPad*%
%ADD12C,0.800000*%
%TD*%
%TA.AperFunction,ViaPad*%
%ADD13C,0.600000*%
%TD*%
%TA.AperFunction,ViaPad*%
%ADD14C,1.200000*%
%TD*%
%TA.AperFunction,ViaPad*%
%ADD15C,0.190000*%
%TD*%
%TA.AperFunction,ViaPad*%
%ADD16C,0.310000*%
%TD*%
G04 APERTURE END LIST*
D10*
%TO.N,GND*%
X162840000Y-105080000D03*
X159330000Y-110260000D03*
D11*
%TO.N,Net-(J9-DAT2)*%
X164901677Y-110851255D03*
%TO.N,Net-(J9-CD{slash}DAT3)*%
X165650000Y-111459285D03*
X171019998Y-112009998D03*
%TO.N,Net-(J9-CMD)*%
X166410000Y-111430000D03*
D12*
%TO.N,SD_VDD*%
X169510000Y-115440000D03*
D13*
X173510000Y-111570000D03*
X173490000Y-109890000D03*
D14*
X170240000Y-110100000D03*
D15*
%TO.N,Net-(J9-CLK)*%
X164133397Y-109380000D03*
D11*
X166990000Y-108650000D03*
X167730000Y-112160000D03*
D13*
%TO.N,GND*%
X177250000Y-111580000D03*
D10*
X157720000Y-107190000D03*
X163420000Y-103160000D03*
D11*
X166902500Y-115372500D03*
D10*
X160880000Y-116210000D03*
X168320000Y-101730000D03*
D15*
X163731603Y-109780000D03*
D11*
X165910000Y-114820000D03*
D10*
X167860000Y-109190000D03*
X165465000Y-105900000D03*
D15*
X164130000Y-109780000D03*
D10*
X174330000Y-116210000D03*
D11*
X166620000Y-114760000D03*
D13*
X177230000Y-109890000D03*
D11*
%TO.N,Net-(J9-DAT0)*%
X165850687Y-112040000D03*
%TO.N,Net-(J9-DAT1)*%
X164563406Y-114385000D03*
D16*
%TO.N,SD_DETECT_BB*%
X162827759Y-111157760D03*
D15*
X163730000Y-110180000D03*
D10*
%TO.N,PS_1V8*%
X168950000Y-118980000D03*
X170350000Y-118970000D03*
X158980000Y-112220000D03*
D13*
X163904999Y-112072635D03*
D11*
%TO.N,PS_3V3*%
X167930000Y-114790000D03*
D10*
X160530000Y-105730000D03*
D11*
X164710000Y-111850000D03*
%TO.N,Net-(U44-VCCB)*%
X168770000Y-109441438D03*
D15*
X164130000Y-110180000D03*
%TO.N,SD_CLKA_BB*%
X163730000Y-109380000D03*
D16*
X162150000Y-110040000D03*
D11*
%TO.N,SD_SEL_BB*%
X160210000Y-114860000D03*
X165010000Y-114860000D03*
%TD*%
M02*
