%TF.GenerationSoftware,KiCad,Pcbnew,10.0.5*%
%TF.CreationDate,2026-08-19T21:22:08-05:00*%
%TF.ProjectId,SD_Breakout,53445f42-7265-4616-9b6f-75742e6b6963,rev?*%
%TF.SameCoordinates,Original*%
%TF.FileFunction,Legend,Top*%
%TF.FilePolarity,Positive*%
%FSLAX46Y46*%
G04 Gerber Fmt 4.6, Leading zero omitted, Abs format (unit mm)*
G04 Created by KiCad (PCBNEW 10.0.5) date 2026-08-19 21:22:08*
%MOMM*%
%LPD*%
G01*
G04 APERTURE LIST*
%ADD10C,0.075000*%
%ADD11C,0.100000*%
%ADD12C,0.150000*%
%ADD13C,0.152400*%
%ADD14C,0.508000*%
%ADD15C,0.120000*%
G04 APERTURE END LIST*
D10*
X155040770Y-96569385D02*
X155040770Y-96269385D01*
X155040770Y-96269385D02*
X155140770Y-96483671D01*
X155140770Y-96483671D02*
X155240770Y-96269385D01*
X155240770Y-96269385D02*
X155240770Y-96569385D01*
X155355056Y-96269385D02*
X155540770Y-96269385D01*
X155540770Y-96269385D02*
X155440770Y-96383671D01*
X155440770Y-96383671D02*
X155483627Y-96383671D01*
X155483627Y-96383671D02*
X155512199Y-96397957D01*
X155512199Y-96397957D02*
X155526484Y-96412242D01*
X155526484Y-96412242D02*
X155540770Y-96440814D01*
X155540770Y-96440814D02*
X155540770Y-96512242D01*
X155540770Y-96512242D02*
X155526484Y-96540814D01*
X155526484Y-96540814D02*
X155512199Y-96555100D01*
X155512199Y-96555100D02*
X155483627Y-96569385D01*
X155483627Y-96569385D02*
X155397913Y-96569385D01*
X155397913Y-96569385D02*
X155369341Y-96555100D01*
X155369341Y-96555100D02*
X155355056Y-96540814D01*
X155897912Y-96569385D02*
X155897912Y-96269385D01*
X155897912Y-96269385D02*
X155997912Y-96483671D01*
X155997912Y-96483671D02*
X156097912Y-96269385D01*
X156097912Y-96269385D02*
X156097912Y-96569385D01*
X156283626Y-96569385D02*
X156255055Y-96555100D01*
X156255055Y-96555100D02*
X156240769Y-96540814D01*
X156240769Y-96540814D02*
X156226483Y-96512242D01*
X156226483Y-96512242D02*
X156226483Y-96426528D01*
X156226483Y-96426528D02*
X156240769Y-96397957D01*
X156240769Y-96397957D02*
X156255055Y-96383671D01*
X156255055Y-96383671D02*
X156283626Y-96369385D01*
X156283626Y-96369385D02*
X156326483Y-96369385D01*
X156326483Y-96369385D02*
X156355055Y-96383671D01*
X156355055Y-96383671D02*
X156369341Y-96397957D01*
X156369341Y-96397957D02*
X156383626Y-96426528D01*
X156383626Y-96426528D02*
X156383626Y-96512242D01*
X156383626Y-96512242D02*
X156369341Y-96540814D01*
X156369341Y-96540814D02*
X156355055Y-96555100D01*
X156355055Y-96555100D02*
X156326483Y-96569385D01*
X156326483Y-96569385D02*
X156283626Y-96569385D01*
X156640770Y-96369385D02*
X156640770Y-96569385D01*
X156512198Y-96369385D02*
X156512198Y-96526528D01*
X156512198Y-96526528D02*
X156526484Y-96555100D01*
X156526484Y-96555100D02*
X156555055Y-96569385D01*
X156555055Y-96569385D02*
X156597912Y-96569385D01*
X156597912Y-96569385D02*
X156626484Y-96555100D01*
X156626484Y-96555100D02*
X156640770Y-96540814D01*
X156783627Y-96369385D02*
X156783627Y-96569385D01*
X156783627Y-96397957D02*
X156797913Y-96383671D01*
X156797913Y-96383671D02*
X156826484Y-96369385D01*
X156826484Y-96369385D02*
X156869341Y-96369385D01*
X156869341Y-96369385D02*
X156897913Y-96383671D01*
X156897913Y-96383671D02*
X156912199Y-96412242D01*
X156912199Y-96412242D02*
X156912199Y-96569385D01*
X157012199Y-96369385D02*
X157126485Y-96369385D01*
X157055056Y-96269385D02*
X157055056Y-96526528D01*
X157055056Y-96526528D02*
X157069342Y-96555100D01*
X157069342Y-96555100D02*
X157097913Y-96569385D01*
X157097913Y-96569385D02*
X157126485Y-96569385D01*
X157226485Y-96569385D02*
X157226485Y-96369385D01*
X157226485Y-96269385D02*
X157212199Y-96283671D01*
X157212199Y-96283671D02*
X157226485Y-96297957D01*
X157226485Y-96297957D02*
X157240771Y-96283671D01*
X157240771Y-96283671D02*
X157226485Y-96269385D01*
X157226485Y-96269385D02*
X157226485Y-96297957D01*
X157369342Y-96369385D02*
X157369342Y-96569385D01*
X157369342Y-96397957D02*
X157383628Y-96383671D01*
X157383628Y-96383671D02*
X157412199Y-96369385D01*
X157412199Y-96369385D02*
X157455056Y-96369385D01*
X157455056Y-96369385D02*
X157483628Y-96383671D01*
X157483628Y-96383671D02*
X157497914Y-96412242D01*
X157497914Y-96412242D02*
X157497914Y-96569385D01*
X157769343Y-96369385D02*
X157769343Y-96612242D01*
X157769343Y-96612242D02*
X157755057Y-96640814D01*
X157755057Y-96640814D02*
X157740771Y-96655100D01*
X157740771Y-96655100D02*
X157712200Y-96669385D01*
X157712200Y-96669385D02*
X157669343Y-96669385D01*
X157669343Y-96669385D02*
X157640771Y-96655100D01*
X157769343Y-96555100D02*
X157740771Y-96569385D01*
X157740771Y-96569385D02*
X157683628Y-96569385D01*
X157683628Y-96569385D02*
X157655057Y-96555100D01*
X157655057Y-96555100D02*
X157640771Y-96540814D01*
X157640771Y-96540814D02*
X157626485Y-96512242D01*
X157626485Y-96512242D02*
X157626485Y-96426528D01*
X157626485Y-96426528D02*
X157640771Y-96397957D01*
X157640771Y-96397957D02*
X157655057Y-96383671D01*
X157655057Y-96383671D02*
X157683628Y-96369385D01*
X157683628Y-96369385D02*
X157740771Y-96369385D01*
X157740771Y-96369385D02*
X157769343Y-96383671D01*
X158140771Y-96569385D02*
X158140771Y-96269385D01*
X158140771Y-96412242D02*
X158312200Y-96412242D01*
X158312200Y-96569385D02*
X158312200Y-96269385D01*
X158497914Y-96569385D02*
X158469343Y-96555100D01*
X158469343Y-96555100D02*
X158455057Y-96540814D01*
X158455057Y-96540814D02*
X158440771Y-96512242D01*
X158440771Y-96512242D02*
X158440771Y-96426528D01*
X158440771Y-96426528D02*
X158455057Y-96397957D01*
X158455057Y-96397957D02*
X158469343Y-96383671D01*
X158469343Y-96383671D02*
X158497914Y-96369385D01*
X158497914Y-96369385D02*
X158540771Y-96369385D01*
X158540771Y-96369385D02*
X158569343Y-96383671D01*
X158569343Y-96383671D02*
X158583629Y-96397957D01*
X158583629Y-96397957D02*
X158597914Y-96426528D01*
X158597914Y-96426528D02*
X158597914Y-96512242D01*
X158597914Y-96512242D02*
X158583629Y-96540814D01*
X158583629Y-96540814D02*
X158569343Y-96555100D01*
X158569343Y-96555100D02*
X158540771Y-96569385D01*
X158540771Y-96569385D02*
X158497914Y-96569385D01*
X158769343Y-96569385D02*
X158740772Y-96555100D01*
X158740772Y-96555100D02*
X158726486Y-96526528D01*
X158726486Y-96526528D02*
X158726486Y-96269385D01*
X158997915Y-96555100D02*
X158969343Y-96569385D01*
X158969343Y-96569385D02*
X158912201Y-96569385D01*
X158912201Y-96569385D02*
X158883629Y-96555100D01*
X158883629Y-96555100D02*
X158869343Y-96526528D01*
X158869343Y-96526528D02*
X158869343Y-96412242D01*
X158869343Y-96412242D02*
X158883629Y-96383671D01*
X158883629Y-96383671D02*
X158912201Y-96369385D01*
X158912201Y-96369385D02*
X158969343Y-96369385D01*
X158969343Y-96369385D02*
X158997915Y-96383671D01*
X158997915Y-96383671D02*
X159012201Y-96412242D01*
X159012201Y-96412242D02*
X159012201Y-96440814D01*
X159012201Y-96440814D02*
X158869343Y-96469385D01*
X159126486Y-96555100D02*
X159155058Y-96569385D01*
X159155058Y-96569385D02*
X159212201Y-96569385D01*
X159212201Y-96569385D02*
X159240772Y-96555100D01*
X159240772Y-96555100D02*
X159255058Y-96526528D01*
X159255058Y-96526528D02*
X159255058Y-96512242D01*
X159255058Y-96512242D02*
X159240772Y-96483671D01*
X159240772Y-96483671D02*
X159212201Y-96469385D01*
X159212201Y-96469385D02*
X159169344Y-96469385D01*
X159169344Y-96469385D02*
X159140772Y-96455100D01*
X159140772Y-96455100D02*
X159126486Y-96426528D01*
X159126486Y-96426528D02*
X159126486Y-96412242D01*
X159126486Y-96412242D02*
X159140772Y-96383671D01*
X159140772Y-96383671D02*
X159169344Y-96369385D01*
X159169344Y-96369385D02*
X159212201Y-96369385D01*
X159212201Y-96369385D02*
X159240772Y-96383671D01*
X178065532Y-107284232D02*
X178122675Y-107303279D01*
X178122675Y-107303279D02*
X178217913Y-107303279D01*
X178217913Y-107303279D02*
X178256008Y-107284232D01*
X178256008Y-107284232D02*
X178275056Y-107265184D01*
X178275056Y-107265184D02*
X178294103Y-107227089D01*
X178294103Y-107227089D02*
X178294103Y-107188993D01*
X178294103Y-107188993D02*
X178275056Y-107150898D01*
X178275056Y-107150898D02*
X178256008Y-107131851D01*
X178256008Y-107131851D02*
X178217913Y-107112803D01*
X178217913Y-107112803D02*
X178141722Y-107093755D01*
X178141722Y-107093755D02*
X178103627Y-107074708D01*
X178103627Y-107074708D02*
X178084580Y-107055660D01*
X178084580Y-107055660D02*
X178065532Y-107017565D01*
X178065532Y-107017565D02*
X178065532Y-106979470D01*
X178065532Y-106979470D02*
X178084580Y-106941374D01*
X178084580Y-106941374D02*
X178103627Y-106922327D01*
X178103627Y-106922327D02*
X178141722Y-106903279D01*
X178141722Y-106903279D02*
X178236961Y-106903279D01*
X178236961Y-106903279D02*
X178294103Y-106922327D01*
X178465532Y-107303279D02*
X178465532Y-106903279D01*
X178465532Y-106903279D02*
X178560770Y-106903279D01*
X178560770Y-106903279D02*
X178617913Y-106922327D01*
X178617913Y-106922327D02*
X178656008Y-106960422D01*
X178656008Y-106960422D02*
X178675055Y-106998517D01*
X178675055Y-106998517D02*
X178694103Y-107074708D01*
X178694103Y-107074708D02*
X178694103Y-107131851D01*
X178694103Y-107131851D02*
X178675055Y-107208041D01*
X178675055Y-107208041D02*
X178656008Y-107246136D01*
X178656008Y-107246136D02*
X178617913Y-107284232D01*
X178617913Y-107284232D02*
X178560770Y-107303279D01*
X178560770Y-107303279D02*
X178465532Y-107303279D01*
X179303627Y-107093755D02*
X179360770Y-107112803D01*
X179360770Y-107112803D02*
X179379817Y-107131851D01*
X179379817Y-107131851D02*
X179398865Y-107169946D01*
X179398865Y-107169946D02*
X179398865Y-107227089D01*
X179398865Y-107227089D02*
X179379817Y-107265184D01*
X179379817Y-107265184D02*
X179360770Y-107284232D01*
X179360770Y-107284232D02*
X179322675Y-107303279D01*
X179322675Y-107303279D02*
X179170294Y-107303279D01*
X179170294Y-107303279D02*
X179170294Y-106903279D01*
X179170294Y-106903279D02*
X179303627Y-106903279D01*
X179303627Y-106903279D02*
X179341722Y-106922327D01*
X179341722Y-106922327D02*
X179360770Y-106941374D01*
X179360770Y-106941374D02*
X179379817Y-106979470D01*
X179379817Y-106979470D02*
X179379817Y-107017565D01*
X179379817Y-107017565D02*
X179360770Y-107055660D01*
X179360770Y-107055660D02*
X179341722Y-107074708D01*
X179341722Y-107074708D02*
X179303627Y-107093755D01*
X179303627Y-107093755D02*
X179170294Y-107093755D01*
X179570294Y-107303279D02*
X179570294Y-107036612D01*
X179570294Y-107112803D02*
X179589341Y-107074708D01*
X179589341Y-107074708D02*
X179608389Y-107055660D01*
X179608389Y-107055660D02*
X179646484Y-107036612D01*
X179646484Y-107036612D02*
X179684579Y-107036612D01*
X179970294Y-107284232D02*
X179932198Y-107303279D01*
X179932198Y-107303279D02*
X179856008Y-107303279D01*
X179856008Y-107303279D02*
X179817913Y-107284232D01*
X179817913Y-107284232D02*
X179798865Y-107246136D01*
X179798865Y-107246136D02*
X179798865Y-107093755D01*
X179798865Y-107093755D02*
X179817913Y-107055660D01*
X179817913Y-107055660D02*
X179856008Y-107036612D01*
X179856008Y-107036612D02*
X179932198Y-107036612D01*
X179932198Y-107036612D02*
X179970294Y-107055660D01*
X179970294Y-107055660D02*
X179989341Y-107093755D01*
X179989341Y-107093755D02*
X179989341Y-107131851D01*
X179989341Y-107131851D02*
X179798865Y-107169946D01*
X180332198Y-107303279D02*
X180332198Y-107093755D01*
X180332198Y-107093755D02*
X180313151Y-107055660D01*
X180313151Y-107055660D02*
X180275055Y-107036612D01*
X180275055Y-107036612D02*
X180198865Y-107036612D01*
X180198865Y-107036612D02*
X180160770Y-107055660D01*
X180332198Y-107284232D02*
X180294103Y-107303279D01*
X180294103Y-107303279D02*
X180198865Y-107303279D01*
X180198865Y-107303279D02*
X180160770Y-107284232D01*
X180160770Y-107284232D02*
X180141722Y-107246136D01*
X180141722Y-107246136D02*
X180141722Y-107208041D01*
X180141722Y-107208041D02*
X180160770Y-107169946D01*
X180160770Y-107169946D02*
X180198865Y-107150898D01*
X180198865Y-107150898D02*
X180294103Y-107150898D01*
X180294103Y-107150898D02*
X180332198Y-107131851D01*
X180522675Y-107303279D02*
X180522675Y-106903279D01*
X180560770Y-107150898D02*
X180675056Y-107303279D01*
X180675056Y-107036612D02*
X180522675Y-107188993D01*
X180903627Y-107303279D02*
X180865532Y-107284232D01*
X180865532Y-107284232D02*
X180846485Y-107265184D01*
X180846485Y-107265184D02*
X180827437Y-107227089D01*
X180827437Y-107227089D02*
X180827437Y-107112803D01*
X180827437Y-107112803D02*
X180846485Y-107074708D01*
X180846485Y-107074708D02*
X180865532Y-107055660D01*
X180865532Y-107055660D02*
X180903627Y-107036612D01*
X180903627Y-107036612D02*
X180960770Y-107036612D01*
X180960770Y-107036612D02*
X180998866Y-107055660D01*
X180998866Y-107055660D02*
X181017913Y-107074708D01*
X181017913Y-107074708D02*
X181036961Y-107112803D01*
X181036961Y-107112803D02*
X181036961Y-107227089D01*
X181036961Y-107227089D02*
X181017913Y-107265184D01*
X181017913Y-107265184D02*
X180998866Y-107284232D01*
X180998866Y-107284232D02*
X180960770Y-107303279D01*
X180960770Y-107303279D02*
X180903627Y-107303279D01*
X181379818Y-107036612D02*
X181379818Y-107303279D01*
X181208390Y-107036612D02*
X181208390Y-107246136D01*
X181208390Y-107246136D02*
X181227437Y-107284232D01*
X181227437Y-107284232D02*
X181265532Y-107303279D01*
X181265532Y-107303279D02*
X181322675Y-107303279D01*
X181322675Y-107303279D02*
X181360771Y-107284232D01*
X181360771Y-107284232D02*
X181379818Y-107265184D01*
X181513152Y-107036612D02*
X181665533Y-107036612D01*
X181570295Y-106903279D02*
X181570295Y-107246136D01*
X181570295Y-107246136D02*
X181589342Y-107284232D01*
X181589342Y-107284232D02*
X181627437Y-107303279D01*
X181627437Y-107303279D02*
X181665533Y-107303279D01*
X182236961Y-107093755D02*
X182294104Y-107112803D01*
X182294104Y-107112803D02*
X182313151Y-107131851D01*
X182313151Y-107131851D02*
X182332199Y-107169946D01*
X182332199Y-107169946D02*
X182332199Y-107227089D01*
X182332199Y-107227089D02*
X182313151Y-107265184D01*
X182313151Y-107265184D02*
X182294104Y-107284232D01*
X182294104Y-107284232D02*
X182256009Y-107303279D01*
X182256009Y-107303279D02*
X182103628Y-107303279D01*
X182103628Y-107303279D02*
X182103628Y-106903279D01*
X182103628Y-106903279D02*
X182236961Y-106903279D01*
X182236961Y-106903279D02*
X182275056Y-106922327D01*
X182275056Y-106922327D02*
X182294104Y-106941374D01*
X182294104Y-106941374D02*
X182313151Y-106979470D01*
X182313151Y-106979470D02*
X182313151Y-107017565D01*
X182313151Y-107017565D02*
X182294104Y-107055660D01*
X182294104Y-107055660D02*
X182275056Y-107074708D01*
X182275056Y-107074708D02*
X182236961Y-107093755D01*
X182236961Y-107093755D02*
X182103628Y-107093755D01*
X182560770Y-107303279D02*
X182522675Y-107284232D01*
X182522675Y-107284232D02*
X182503628Y-107265184D01*
X182503628Y-107265184D02*
X182484580Y-107227089D01*
X182484580Y-107227089D02*
X182484580Y-107112803D01*
X182484580Y-107112803D02*
X182503628Y-107074708D01*
X182503628Y-107074708D02*
X182522675Y-107055660D01*
X182522675Y-107055660D02*
X182560770Y-107036612D01*
X182560770Y-107036612D02*
X182617913Y-107036612D01*
X182617913Y-107036612D02*
X182656009Y-107055660D01*
X182656009Y-107055660D02*
X182675056Y-107074708D01*
X182675056Y-107074708D02*
X182694104Y-107112803D01*
X182694104Y-107112803D02*
X182694104Y-107227089D01*
X182694104Y-107227089D02*
X182675056Y-107265184D01*
X182675056Y-107265184D02*
X182656009Y-107284232D01*
X182656009Y-107284232D02*
X182617913Y-107303279D01*
X182617913Y-107303279D02*
X182560770Y-107303279D01*
X183036961Y-107303279D02*
X183036961Y-107093755D01*
X183036961Y-107093755D02*
X183017914Y-107055660D01*
X183017914Y-107055660D02*
X182979818Y-107036612D01*
X182979818Y-107036612D02*
X182903628Y-107036612D01*
X182903628Y-107036612D02*
X182865533Y-107055660D01*
X183036961Y-107284232D02*
X182998866Y-107303279D01*
X182998866Y-107303279D02*
X182903628Y-107303279D01*
X182903628Y-107303279D02*
X182865533Y-107284232D01*
X182865533Y-107284232D02*
X182846485Y-107246136D01*
X182846485Y-107246136D02*
X182846485Y-107208041D01*
X182846485Y-107208041D02*
X182865533Y-107169946D01*
X182865533Y-107169946D02*
X182903628Y-107150898D01*
X182903628Y-107150898D02*
X182998866Y-107150898D01*
X182998866Y-107150898D02*
X183036961Y-107131851D01*
X183227438Y-107303279D02*
X183227438Y-107036612D01*
X183227438Y-107112803D02*
X183246485Y-107074708D01*
X183246485Y-107074708D02*
X183265533Y-107055660D01*
X183265533Y-107055660D02*
X183303628Y-107036612D01*
X183303628Y-107036612D02*
X183341723Y-107036612D01*
X183646485Y-107303279D02*
X183646485Y-106903279D01*
X183646485Y-107284232D02*
X183608390Y-107303279D01*
X183608390Y-107303279D02*
X183532199Y-107303279D01*
X183532199Y-107303279D02*
X183494104Y-107284232D01*
X183494104Y-107284232D02*
X183475057Y-107265184D01*
X183475057Y-107265184D02*
X183456009Y-107227089D01*
X183456009Y-107227089D02*
X183456009Y-107112803D01*
X183456009Y-107112803D02*
X183475057Y-107074708D01*
X183475057Y-107074708D02*
X183494104Y-107055660D01*
X183494104Y-107055660D02*
X183532199Y-107036612D01*
X183532199Y-107036612D02*
X183608390Y-107036612D01*
X183608390Y-107036612D02*
X183646485Y-107055660D01*
X178027437Y-107680590D02*
X178179818Y-107680590D01*
X178084580Y-107947257D02*
X178084580Y-107604400D01*
X178084580Y-107604400D02*
X178103627Y-107566305D01*
X178103627Y-107566305D02*
X178141722Y-107547257D01*
X178141722Y-107547257D02*
X178179818Y-107547257D01*
X178370293Y-107947257D02*
X178332198Y-107928210D01*
X178332198Y-107928210D02*
X178313151Y-107909162D01*
X178313151Y-107909162D02*
X178294103Y-107871067D01*
X178294103Y-107871067D02*
X178294103Y-107756781D01*
X178294103Y-107756781D02*
X178313151Y-107718686D01*
X178313151Y-107718686D02*
X178332198Y-107699638D01*
X178332198Y-107699638D02*
X178370293Y-107680590D01*
X178370293Y-107680590D02*
X178427436Y-107680590D01*
X178427436Y-107680590D02*
X178465532Y-107699638D01*
X178465532Y-107699638D02*
X178484579Y-107718686D01*
X178484579Y-107718686D02*
X178503627Y-107756781D01*
X178503627Y-107756781D02*
X178503627Y-107871067D01*
X178503627Y-107871067D02*
X178484579Y-107909162D01*
X178484579Y-107909162D02*
X178465532Y-107928210D01*
X178465532Y-107928210D02*
X178427436Y-107947257D01*
X178427436Y-107947257D02*
X178370293Y-107947257D01*
X178675056Y-107947257D02*
X178675056Y-107680590D01*
X178675056Y-107756781D02*
X178694103Y-107718686D01*
X178694103Y-107718686D02*
X178713151Y-107699638D01*
X178713151Y-107699638D02*
X178751246Y-107680590D01*
X178751246Y-107680590D02*
X178789341Y-107680590D01*
X179227437Y-107947257D02*
X179227437Y-107547257D01*
X179456008Y-107947257D02*
X179284579Y-107718686D01*
X179456008Y-107547257D02*
X179227437Y-107775829D01*
X179608389Y-107832971D02*
X179798865Y-107832971D01*
X179570294Y-107947257D02*
X179703627Y-107547257D01*
X179703627Y-107547257D02*
X179836960Y-107947257D01*
X179970294Y-107947257D02*
X179970294Y-107547257D01*
X179970294Y-107547257D02*
X180065532Y-107547257D01*
X180065532Y-107547257D02*
X180122675Y-107566305D01*
X180122675Y-107566305D02*
X180160770Y-107604400D01*
X180160770Y-107604400D02*
X180179817Y-107642495D01*
X180179817Y-107642495D02*
X180198865Y-107718686D01*
X180198865Y-107718686D02*
X180198865Y-107775829D01*
X180198865Y-107775829D02*
X180179817Y-107852019D01*
X180179817Y-107852019D02*
X180160770Y-107890114D01*
X180160770Y-107890114D02*
X180122675Y-107928210D01*
X180122675Y-107928210D02*
X180065532Y-107947257D01*
X180065532Y-107947257D02*
X179970294Y-107947257D01*
X180598865Y-107909162D02*
X180579817Y-107928210D01*
X180579817Y-107928210D02*
X180522675Y-107947257D01*
X180522675Y-107947257D02*
X180484579Y-107947257D01*
X180484579Y-107947257D02*
X180427436Y-107928210D01*
X180427436Y-107928210D02*
X180389341Y-107890114D01*
X180389341Y-107890114D02*
X180370294Y-107852019D01*
X180370294Y-107852019D02*
X180351246Y-107775829D01*
X180351246Y-107775829D02*
X180351246Y-107718686D01*
X180351246Y-107718686D02*
X180370294Y-107642495D01*
X180370294Y-107642495D02*
X180389341Y-107604400D01*
X180389341Y-107604400D02*
X180427436Y-107566305D01*
X180427436Y-107566305D02*
X180484579Y-107547257D01*
X180484579Y-107547257D02*
X180522675Y-107547257D01*
X180522675Y-107547257D02*
X180579817Y-107566305D01*
X180579817Y-107566305D02*
X180598865Y-107585352D01*
X181303627Y-107909162D02*
X181284579Y-107928210D01*
X181284579Y-107928210D02*
X181227437Y-107947257D01*
X181227437Y-107947257D02*
X181189341Y-107947257D01*
X181189341Y-107947257D02*
X181132198Y-107928210D01*
X181132198Y-107928210D02*
X181094103Y-107890114D01*
X181094103Y-107890114D02*
X181075056Y-107852019D01*
X181075056Y-107852019D02*
X181056008Y-107775829D01*
X181056008Y-107775829D02*
X181056008Y-107718686D01*
X181056008Y-107718686D02*
X181075056Y-107642495D01*
X181075056Y-107642495D02*
X181094103Y-107604400D01*
X181094103Y-107604400D02*
X181132198Y-107566305D01*
X181132198Y-107566305D02*
X181189341Y-107547257D01*
X181189341Y-107547257D02*
X181227437Y-107547257D01*
X181227437Y-107547257D02*
X181284579Y-107566305D01*
X181284579Y-107566305D02*
X181303627Y-107585352D01*
X181532198Y-107947257D02*
X181494103Y-107928210D01*
X181494103Y-107928210D02*
X181475056Y-107909162D01*
X181475056Y-107909162D02*
X181456008Y-107871067D01*
X181456008Y-107871067D02*
X181456008Y-107756781D01*
X181456008Y-107756781D02*
X181475056Y-107718686D01*
X181475056Y-107718686D02*
X181494103Y-107699638D01*
X181494103Y-107699638D02*
X181532198Y-107680590D01*
X181532198Y-107680590D02*
X181589341Y-107680590D01*
X181589341Y-107680590D02*
X181627437Y-107699638D01*
X181627437Y-107699638D02*
X181646484Y-107718686D01*
X181646484Y-107718686D02*
X181665532Y-107756781D01*
X181665532Y-107756781D02*
X181665532Y-107871067D01*
X181665532Y-107871067D02*
X181646484Y-107909162D01*
X181646484Y-107909162D02*
X181627437Y-107928210D01*
X181627437Y-107928210D02*
X181589341Y-107947257D01*
X181589341Y-107947257D02*
X181532198Y-107947257D01*
X181836961Y-107680590D02*
X181836961Y-107947257D01*
X181836961Y-107718686D02*
X181856008Y-107699638D01*
X181856008Y-107699638D02*
X181894103Y-107680590D01*
X181894103Y-107680590D02*
X181951246Y-107680590D01*
X181951246Y-107680590D02*
X181989342Y-107699638D01*
X181989342Y-107699638D02*
X182008389Y-107737733D01*
X182008389Y-107737733D02*
X182008389Y-107947257D01*
X182141723Y-107680590D02*
X182294104Y-107680590D01*
X182198866Y-107547257D02*
X182198866Y-107890114D01*
X182198866Y-107890114D02*
X182217913Y-107928210D01*
X182217913Y-107928210D02*
X182256008Y-107947257D01*
X182256008Y-107947257D02*
X182294104Y-107947257D01*
X182427437Y-107947257D02*
X182427437Y-107680590D01*
X182427437Y-107756781D02*
X182446484Y-107718686D01*
X182446484Y-107718686D02*
X182465532Y-107699638D01*
X182465532Y-107699638D02*
X182503627Y-107680590D01*
X182503627Y-107680590D02*
X182541722Y-107680590D01*
X182732198Y-107947257D02*
X182694103Y-107928210D01*
X182694103Y-107928210D02*
X182675056Y-107909162D01*
X182675056Y-107909162D02*
X182656008Y-107871067D01*
X182656008Y-107871067D02*
X182656008Y-107756781D01*
X182656008Y-107756781D02*
X182675056Y-107718686D01*
X182675056Y-107718686D02*
X182694103Y-107699638D01*
X182694103Y-107699638D02*
X182732198Y-107680590D01*
X182732198Y-107680590D02*
X182789341Y-107680590D01*
X182789341Y-107680590D02*
X182827437Y-107699638D01*
X182827437Y-107699638D02*
X182846484Y-107718686D01*
X182846484Y-107718686D02*
X182865532Y-107756781D01*
X182865532Y-107756781D02*
X182865532Y-107871067D01*
X182865532Y-107871067D02*
X182846484Y-107909162D01*
X182846484Y-107909162D02*
X182827437Y-107928210D01*
X182827437Y-107928210D02*
X182789341Y-107947257D01*
X182789341Y-107947257D02*
X182732198Y-107947257D01*
X183094103Y-107947257D02*
X183056008Y-107928210D01*
X183056008Y-107928210D02*
X183036961Y-107890114D01*
X183036961Y-107890114D02*
X183036961Y-107547257D01*
X183303627Y-107947257D02*
X183265532Y-107928210D01*
X183265532Y-107928210D02*
X183246485Y-107890114D01*
X183246485Y-107890114D02*
X183246485Y-107547257D01*
X183608390Y-107928210D02*
X183570294Y-107947257D01*
X183570294Y-107947257D02*
X183494104Y-107947257D01*
X183494104Y-107947257D02*
X183456009Y-107928210D01*
X183456009Y-107928210D02*
X183436961Y-107890114D01*
X183436961Y-107890114D02*
X183436961Y-107737733D01*
X183436961Y-107737733D02*
X183456009Y-107699638D01*
X183456009Y-107699638D02*
X183494104Y-107680590D01*
X183494104Y-107680590D02*
X183570294Y-107680590D01*
X183570294Y-107680590D02*
X183608390Y-107699638D01*
X183608390Y-107699638D02*
X183627437Y-107737733D01*
X183627437Y-107737733D02*
X183627437Y-107775829D01*
X183627437Y-107775829D02*
X183436961Y-107813924D01*
X183798866Y-107947257D02*
X183798866Y-107680590D01*
X183798866Y-107756781D02*
X183817913Y-107718686D01*
X183817913Y-107718686D02*
X183836961Y-107699638D01*
X183836961Y-107699638D02*
X183875056Y-107680590D01*
X183875056Y-107680590D02*
X183913151Y-107680590D01*
X178313151Y-108591235D02*
X178179818Y-108400759D01*
X178084580Y-108591235D02*
X178084580Y-108191235D01*
X178084580Y-108191235D02*
X178236961Y-108191235D01*
X178236961Y-108191235D02*
X178275056Y-108210283D01*
X178275056Y-108210283D02*
X178294103Y-108229330D01*
X178294103Y-108229330D02*
X178313151Y-108267426D01*
X178313151Y-108267426D02*
X178313151Y-108324568D01*
X178313151Y-108324568D02*
X178294103Y-108362664D01*
X178294103Y-108362664D02*
X178275056Y-108381711D01*
X178275056Y-108381711D02*
X178236961Y-108400759D01*
X178236961Y-108400759D02*
X178084580Y-108400759D01*
X178636961Y-108572188D02*
X178598865Y-108591235D01*
X178598865Y-108591235D02*
X178522675Y-108591235D01*
X178522675Y-108591235D02*
X178484580Y-108572188D01*
X178484580Y-108572188D02*
X178465532Y-108534092D01*
X178465532Y-108534092D02*
X178465532Y-108381711D01*
X178465532Y-108381711D02*
X178484580Y-108343616D01*
X178484580Y-108343616D02*
X178522675Y-108324568D01*
X178522675Y-108324568D02*
X178598865Y-108324568D01*
X178598865Y-108324568D02*
X178636961Y-108343616D01*
X178636961Y-108343616D02*
X178656008Y-108381711D01*
X178656008Y-108381711D02*
X178656008Y-108419807D01*
X178656008Y-108419807D02*
X178465532Y-108457902D01*
X178789341Y-108324568D02*
X178884579Y-108591235D01*
X178884579Y-108591235D02*
X178979818Y-108324568D01*
X179417913Y-108476949D02*
X179608389Y-108476949D01*
X179379818Y-108591235D02*
X179513151Y-108191235D01*
X179513151Y-108191235D02*
X179646484Y-108591235D01*
X178065532Y-109120927D02*
X178256008Y-109120927D01*
X178027437Y-109235213D02*
X178160770Y-108835213D01*
X178160770Y-108835213D02*
X178294103Y-109235213D01*
X178427437Y-109235213D02*
X178427437Y-108835213D01*
X178598865Y-109235213D02*
X178598865Y-109025689D01*
X178598865Y-109025689D02*
X178579818Y-108987594D01*
X178579818Y-108987594D02*
X178541722Y-108968546D01*
X178541722Y-108968546D02*
X178484579Y-108968546D01*
X178484579Y-108968546D02*
X178446484Y-108987594D01*
X178446484Y-108987594D02*
X178427437Y-109006642D01*
X178960770Y-109235213D02*
X178960770Y-109025689D01*
X178960770Y-109025689D02*
X178941723Y-108987594D01*
X178941723Y-108987594D02*
X178903627Y-108968546D01*
X178903627Y-108968546D02*
X178827437Y-108968546D01*
X178827437Y-108968546D02*
X178789342Y-108987594D01*
X178960770Y-109216166D02*
X178922675Y-109235213D01*
X178922675Y-109235213D02*
X178827437Y-109235213D01*
X178827437Y-109235213D02*
X178789342Y-109216166D01*
X178789342Y-109216166D02*
X178770294Y-109178070D01*
X178770294Y-109178070D02*
X178770294Y-109139975D01*
X178770294Y-109139975D02*
X178789342Y-109101880D01*
X178789342Y-109101880D02*
X178827437Y-109082832D01*
X178827437Y-109082832D02*
X178922675Y-109082832D01*
X178922675Y-109082832D02*
X178960770Y-109063785D01*
X179151247Y-108968546D02*
X179151247Y-109235213D01*
X179151247Y-109006642D02*
X179170294Y-108987594D01*
X179170294Y-108987594D02*
X179208389Y-108968546D01*
X179208389Y-108968546D02*
X179265532Y-108968546D01*
X179265532Y-108968546D02*
X179303628Y-108987594D01*
X179303628Y-108987594D02*
X179322675Y-109025689D01*
X179322675Y-109025689D02*
X179322675Y-109235213D01*
X179817914Y-109235213D02*
X179817914Y-108835213D01*
X179817914Y-108835213D02*
X179913152Y-108835213D01*
X179913152Y-108835213D02*
X179970295Y-108854261D01*
X179970295Y-108854261D02*
X180008390Y-108892356D01*
X180008390Y-108892356D02*
X180027437Y-108930451D01*
X180027437Y-108930451D02*
X180046485Y-109006642D01*
X180046485Y-109006642D02*
X180046485Y-109063785D01*
X180046485Y-109063785D02*
X180027437Y-109139975D01*
X180027437Y-109139975D02*
X180008390Y-109178070D01*
X180008390Y-109178070D02*
X179970295Y-109216166D01*
X179970295Y-109216166D02*
X179913152Y-109235213D01*
X179913152Y-109235213D02*
X179817914Y-109235213D01*
X180389342Y-109235213D02*
X180389342Y-109025689D01*
X180389342Y-109025689D02*
X180370295Y-108987594D01*
X180370295Y-108987594D02*
X180332199Y-108968546D01*
X180332199Y-108968546D02*
X180256009Y-108968546D01*
X180256009Y-108968546D02*
X180217914Y-108987594D01*
X180389342Y-109216166D02*
X180351247Y-109235213D01*
X180351247Y-109235213D02*
X180256009Y-109235213D01*
X180256009Y-109235213D02*
X180217914Y-109216166D01*
X180217914Y-109216166D02*
X180198866Y-109178070D01*
X180198866Y-109178070D02*
X180198866Y-109139975D01*
X180198866Y-109139975D02*
X180217914Y-109101880D01*
X180217914Y-109101880D02*
X180256009Y-109082832D01*
X180256009Y-109082832D02*
X180351247Y-109082832D01*
X180351247Y-109082832D02*
X180389342Y-109063785D01*
X180522676Y-108968546D02*
X180675057Y-108968546D01*
X180579819Y-108835213D02*
X180579819Y-109178070D01*
X180579819Y-109178070D02*
X180598866Y-109216166D01*
X180598866Y-109216166D02*
X180636961Y-109235213D01*
X180636961Y-109235213D02*
X180675057Y-109235213D01*
X180751247Y-108968546D02*
X180903628Y-108968546D01*
X180808390Y-108835213D02*
X180808390Y-109178070D01*
X180808390Y-109178070D02*
X180827437Y-109216166D01*
X180827437Y-109216166D02*
X180865532Y-109235213D01*
X180865532Y-109235213D02*
X180903628Y-109235213D01*
X181208389Y-109235213D02*
X181208389Y-109025689D01*
X181208389Y-109025689D02*
X181189342Y-108987594D01*
X181189342Y-108987594D02*
X181151246Y-108968546D01*
X181151246Y-108968546D02*
X181075056Y-108968546D01*
X181075056Y-108968546D02*
X181036961Y-108987594D01*
X181208389Y-109216166D02*
X181170294Y-109235213D01*
X181170294Y-109235213D02*
X181075056Y-109235213D01*
X181075056Y-109235213D02*
X181036961Y-109216166D01*
X181036961Y-109216166D02*
X181017913Y-109178070D01*
X181017913Y-109178070D02*
X181017913Y-109139975D01*
X181017913Y-109139975D02*
X181036961Y-109101880D01*
X181036961Y-109101880D02*
X181075056Y-109082832D01*
X181075056Y-109082832D02*
X181170294Y-109082832D01*
X181170294Y-109082832D02*
X181208389Y-109063785D01*
X178065532Y-109764905D02*
X178256008Y-109764905D01*
X178027437Y-109879191D02*
X178160770Y-109479191D01*
X178160770Y-109479191D02*
X178294103Y-109879191D01*
X178427437Y-109612524D02*
X178427437Y-109879191D01*
X178427437Y-109650620D02*
X178446484Y-109631572D01*
X178446484Y-109631572D02*
X178484579Y-109612524D01*
X178484579Y-109612524D02*
X178541722Y-109612524D01*
X178541722Y-109612524D02*
X178579818Y-109631572D01*
X178579818Y-109631572D02*
X178598865Y-109669667D01*
X178598865Y-109669667D02*
X178598865Y-109879191D01*
X178960770Y-109879191D02*
X178960770Y-109479191D01*
X178960770Y-109860144D02*
X178922675Y-109879191D01*
X178922675Y-109879191D02*
X178846484Y-109879191D01*
X178846484Y-109879191D02*
X178808389Y-109860144D01*
X178808389Y-109860144D02*
X178789342Y-109841096D01*
X178789342Y-109841096D02*
X178770294Y-109803001D01*
X178770294Y-109803001D02*
X178770294Y-109688715D01*
X178770294Y-109688715D02*
X178789342Y-109650620D01*
X178789342Y-109650620D02*
X178808389Y-109631572D01*
X178808389Y-109631572D02*
X178846484Y-109612524D01*
X178846484Y-109612524D02*
X178922675Y-109612524D01*
X178922675Y-109612524D02*
X178960770Y-109631572D01*
X179151247Y-109879191D02*
X179151247Y-109612524D01*
X179151247Y-109688715D02*
X179170294Y-109650620D01*
X179170294Y-109650620D02*
X179189342Y-109631572D01*
X179189342Y-109631572D02*
X179227437Y-109612524D01*
X179227437Y-109612524D02*
X179265532Y-109612524D01*
X179551247Y-109860144D02*
X179513151Y-109879191D01*
X179513151Y-109879191D02*
X179436961Y-109879191D01*
X179436961Y-109879191D02*
X179398866Y-109860144D01*
X179398866Y-109860144D02*
X179379818Y-109822048D01*
X179379818Y-109822048D02*
X179379818Y-109669667D01*
X179379818Y-109669667D02*
X179398866Y-109631572D01*
X179398866Y-109631572D02*
X179436961Y-109612524D01*
X179436961Y-109612524D02*
X179513151Y-109612524D01*
X179513151Y-109612524D02*
X179551247Y-109631572D01*
X179551247Y-109631572D02*
X179570294Y-109669667D01*
X179570294Y-109669667D02*
X179570294Y-109707763D01*
X179570294Y-109707763D02*
X179379818Y-109745858D01*
X179703627Y-109612524D02*
X179779818Y-109879191D01*
X179779818Y-109879191D02*
X179856008Y-109688715D01*
X179856008Y-109688715D02*
X179932199Y-109879191D01*
X179932199Y-109879191D02*
X180008389Y-109612524D01*
X180446485Y-109764905D02*
X180636961Y-109764905D01*
X180408390Y-109879191D02*
X180541723Y-109479191D01*
X180541723Y-109479191D02*
X180675056Y-109879191D01*
X180808390Y-109879191D02*
X180808390Y-109612524D01*
X180808390Y-109688715D02*
X180827437Y-109650620D01*
X180827437Y-109650620D02*
X180846485Y-109631572D01*
X180846485Y-109631572D02*
X180884580Y-109612524D01*
X180884580Y-109612524D02*
X180922675Y-109612524D01*
X181017913Y-109612524D02*
X181227437Y-109612524D01*
X181227437Y-109612524D02*
X181017913Y-109879191D01*
X181017913Y-109879191D02*
X181227437Y-109879191D01*
X181551247Y-109879191D02*
X181551247Y-109669667D01*
X181551247Y-109669667D02*
X181532200Y-109631572D01*
X181532200Y-109631572D02*
X181494104Y-109612524D01*
X181494104Y-109612524D02*
X181417914Y-109612524D01*
X181417914Y-109612524D02*
X181379819Y-109631572D01*
X181551247Y-109860144D02*
X181513152Y-109879191D01*
X181513152Y-109879191D02*
X181417914Y-109879191D01*
X181417914Y-109879191D02*
X181379819Y-109860144D01*
X181379819Y-109860144D02*
X181360771Y-109822048D01*
X181360771Y-109822048D02*
X181360771Y-109783953D01*
X181360771Y-109783953D02*
X181379819Y-109745858D01*
X181379819Y-109745858D02*
X181417914Y-109726810D01*
X181417914Y-109726810D02*
X181513152Y-109726810D01*
X181513152Y-109726810D02*
X181551247Y-109707763D01*
X181913152Y-109860144D02*
X181875057Y-109879191D01*
X181875057Y-109879191D02*
X181798866Y-109879191D01*
X181798866Y-109879191D02*
X181760771Y-109860144D01*
X181760771Y-109860144D02*
X181741724Y-109841096D01*
X181741724Y-109841096D02*
X181722676Y-109803001D01*
X181722676Y-109803001D02*
X181722676Y-109688715D01*
X181722676Y-109688715D02*
X181741724Y-109650620D01*
X181741724Y-109650620D02*
X181760771Y-109631572D01*
X181760771Y-109631572D02*
X181798866Y-109612524D01*
X181798866Y-109612524D02*
X181875057Y-109612524D01*
X181875057Y-109612524D02*
X181913152Y-109631572D01*
X178256008Y-110523169D02*
X178256008Y-110313645D01*
X178256008Y-110313645D02*
X178236961Y-110275550D01*
X178236961Y-110275550D02*
X178198865Y-110256502D01*
X178198865Y-110256502D02*
X178122675Y-110256502D01*
X178122675Y-110256502D02*
X178084580Y-110275550D01*
X178256008Y-110504122D02*
X178217913Y-110523169D01*
X178217913Y-110523169D02*
X178122675Y-110523169D01*
X178122675Y-110523169D02*
X178084580Y-110504122D01*
X178084580Y-110504122D02*
X178065532Y-110466026D01*
X178065532Y-110466026D02*
X178065532Y-110427931D01*
X178065532Y-110427931D02*
X178084580Y-110389836D01*
X178084580Y-110389836D02*
X178122675Y-110370788D01*
X178122675Y-110370788D02*
X178217913Y-110370788D01*
X178217913Y-110370788D02*
X178256008Y-110351741D01*
X178446485Y-110523169D02*
X178446485Y-110123169D01*
X178617913Y-110523169D02*
X178617913Y-110313645D01*
X178617913Y-110313645D02*
X178598866Y-110275550D01*
X178598866Y-110275550D02*
X178560770Y-110256502D01*
X178560770Y-110256502D02*
X178503627Y-110256502D01*
X178503627Y-110256502D02*
X178465532Y-110275550D01*
X178465532Y-110275550D02*
X178446485Y-110294598D01*
X178979818Y-110523169D02*
X178979818Y-110313645D01*
X178979818Y-110313645D02*
X178960771Y-110275550D01*
X178960771Y-110275550D02*
X178922675Y-110256502D01*
X178922675Y-110256502D02*
X178846485Y-110256502D01*
X178846485Y-110256502D02*
X178808390Y-110275550D01*
X178979818Y-110504122D02*
X178941723Y-110523169D01*
X178941723Y-110523169D02*
X178846485Y-110523169D01*
X178846485Y-110523169D02*
X178808390Y-110504122D01*
X178808390Y-110504122D02*
X178789342Y-110466026D01*
X178789342Y-110466026D02*
X178789342Y-110427931D01*
X178789342Y-110427931D02*
X178808390Y-110389836D01*
X178808390Y-110389836D02*
X178846485Y-110370788D01*
X178846485Y-110370788D02*
X178941723Y-110370788D01*
X178941723Y-110370788D02*
X178979818Y-110351741D01*
X179170295Y-110256502D02*
X179170295Y-110523169D01*
X179170295Y-110294598D02*
X179189342Y-110275550D01*
X179189342Y-110275550D02*
X179227437Y-110256502D01*
X179227437Y-110256502D02*
X179284580Y-110256502D01*
X179284580Y-110256502D02*
X179322676Y-110275550D01*
X179322676Y-110275550D02*
X179341723Y-110313645D01*
X179341723Y-110313645D02*
X179341723Y-110523169D01*
X179703628Y-110523169D02*
X179703628Y-110123169D01*
X179703628Y-110504122D02*
X179665533Y-110523169D01*
X179665533Y-110523169D02*
X179589342Y-110523169D01*
X179589342Y-110523169D02*
X179551247Y-110504122D01*
X179551247Y-110504122D02*
X179532200Y-110485074D01*
X179532200Y-110485074D02*
X179513152Y-110446979D01*
X179513152Y-110446979D02*
X179513152Y-110332693D01*
X179513152Y-110332693D02*
X179532200Y-110294598D01*
X179532200Y-110294598D02*
X179551247Y-110275550D01*
X179551247Y-110275550D02*
X179589342Y-110256502D01*
X179589342Y-110256502D02*
X179665533Y-110256502D01*
X179665533Y-110256502D02*
X179703628Y-110275550D01*
X180141724Y-110332693D02*
X180122676Y-110313645D01*
X180122676Y-110313645D02*
X180084581Y-110294598D01*
X180084581Y-110294598D02*
X180046486Y-110294598D01*
X180046486Y-110294598D02*
X180008390Y-110313645D01*
X180008390Y-110313645D02*
X179989343Y-110332693D01*
X179989343Y-110332693D02*
X179970295Y-110370788D01*
X179970295Y-110370788D02*
X179970295Y-110408883D01*
X179970295Y-110408883D02*
X179989343Y-110446979D01*
X179989343Y-110446979D02*
X180008390Y-110466026D01*
X180008390Y-110466026D02*
X180046486Y-110485074D01*
X180046486Y-110485074D02*
X180084581Y-110485074D01*
X180084581Y-110485074D02*
X180122676Y-110466026D01*
X180122676Y-110466026D02*
X180141724Y-110446979D01*
X180141724Y-110294598D02*
X180141724Y-110446979D01*
X180141724Y-110446979D02*
X180160771Y-110466026D01*
X180160771Y-110466026D02*
X180179819Y-110466026D01*
X180179819Y-110466026D02*
X180217914Y-110446979D01*
X180217914Y-110446979D02*
X180236962Y-110408883D01*
X180236962Y-110408883D02*
X180236962Y-110313645D01*
X180236962Y-110313645D02*
X180198867Y-110256502D01*
X180198867Y-110256502D02*
X180141724Y-110218407D01*
X180141724Y-110218407D02*
X180065533Y-110199360D01*
X180065533Y-110199360D02*
X179989343Y-110218407D01*
X179989343Y-110218407D02*
X179932200Y-110256502D01*
X179932200Y-110256502D02*
X179894105Y-110313645D01*
X179894105Y-110313645D02*
X179875057Y-110389836D01*
X179875057Y-110389836D02*
X179894105Y-110466026D01*
X179894105Y-110466026D02*
X179932200Y-110523169D01*
X179932200Y-110523169D02*
X179989343Y-110561264D01*
X179989343Y-110561264D02*
X180065533Y-110580312D01*
X180065533Y-110580312D02*
X180141724Y-110561264D01*
X180141724Y-110561264D02*
X180198867Y-110523169D01*
X180579819Y-110256502D02*
X180579819Y-110523169D01*
X180408391Y-110256502D02*
X180408391Y-110466026D01*
X180408391Y-110466026D02*
X180427438Y-110504122D01*
X180427438Y-110504122D02*
X180465533Y-110523169D01*
X180465533Y-110523169D02*
X180522676Y-110523169D01*
X180522676Y-110523169D02*
X180560772Y-110504122D01*
X180560772Y-110504122D02*
X180579819Y-110485074D01*
X180941724Y-110504122D02*
X180903629Y-110523169D01*
X180903629Y-110523169D02*
X180827438Y-110523169D01*
X180827438Y-110523169D02*
X180789343Y-110504122D01*
X180789343Y-110504122D02*
X180770296Y-110485074D01*
X180770296Y-110485074D02*
X180751248Y-110446979D01*
X180751248Y-110446979D02*
X180751248Y-110332693D01*
X180751248Y-110332693D02*
X180770296Y-110294598D01*
X180770296Y-110294598D02*
X180789343Y-110275550D01*
X180789343Y-110275550D02*
X180827438Y-110256502D01*
X180827438Y-110256502D02*
X180903629Y-110256502D01*
X180903629Y-110256502D02*
X180941724Y-110275550D01*
X181113153Y-110523169D02*
X181113153Y-110123169D01*
X181284581Y-110523169D02*
X181284581Y-110313645D01*
X181284581Y-110313645D02*
X181265534Y-110275550D01*
X181265534Y-110275550D02*
X181227438Y-110256502D01*
X181227438Y-110256502D02*
X181170295Y-110256502D01*
X181170295Y-110256502D02*
X181132200Y-110275550D01*
X181132200Y-110275550D02*
X181113153Y-110294598D01*
X181475058Y-110523169D02*
X181475058Y-110256502D01*
X181475058Y-110123169D02*
X181456010Y-110142217D01*
X181456010Y-110142217D02*
X181475058Y-110161264D01*
X181475058Y-110161264D02*
X181494105Y-110142217D01*
X181494105Y-110142217D02*
X181475058Y-110123169D01*
X181475058Y-110123169D02*
X181475058Y-110161264D01*
X181836962Y-110504122D02*
X181798867Y-110523169D01*
X181798867Y-110523169D02*
X181722676Y-110523169D01*
X181722676Y-110523169D02*
X181684581Y-110504122D01*
X181684581Y-110504122D02*
X181665534Y-110485074D01*
X181665534Y-110485074D02*
X181646486Y-110446979D01*
X181646486Y-110446979D02*
X181646486Y-110332693D01*
X181646486Y-110332693D02*
X181665534Y-110294598D01*
X181665534Y-110294598D02*
X181684581Y-110275550D01*
X181684581Y-110275550D02*
X181722676Y-110256502D01*
X181722676Y-110256502D02*
X181798867Y-110256502D01*
X181798867Y-110256502D02*
X181836962Y-110275550D01*
X182179819Y-110523169D02*
X182179819Y-110313645D01*
X182179819Y-110313645D02*
X182160772Y-110275550D01*
X182160772Y-110275550D02*
X182122676Y-110256502D01*
X182122676Y-110256502D02*
X182046486Y-110256502D01*
X182046486Y-110256502D02*
X182008391Y-110275550D01*
X182179819Y-110504122D02*
X182141724Y-110523169D01*
X182141724Y-110523169D02*
X182046486Y-110523169D01*
X182046486Y-110523169D02*
X182008391Y-110504122D01*
X182008391Y-110504122D02*
X181989343Y-110466026D01*
X181989343Y-110466026D02*
X181989343Y-110427931D01*
X181989343Y-110427931D02*
X182008391Y-110389836D01*
X182008391Y-110389836D02*
X182046486Y-110370788D01*
X182046486Y-110370788D02*
X182141724Y-110370788D01*
X182141724Y-110370788D02*
X182179819Y-110351741D01*
X182541724Y-110256502D02*
X182541724Y-110580312D01*
X182541724Y-110580312D02*
X182522677Y-110618407D01*
X182522677Y-110618407D02*
X182503629Y-110637455D01*
X182503629Y-110637455D02*
X182465534Y-110656502D01*
X182465534Y-110656502D02*
X182408391Y-110656502D01*
X182408391Y-110656502D02*
X182370296Y-110637455D01*
X182541724Y-110504122D02*
X182503629Y-110523169D01*
X182503629Y-110523169D02*
X182427438Y-110523169D01*
X182427438Y-110523169D02*
X182389343Y-110504122D01*
X182389343Y-110504122D02*
X182370296Y-110485074D01*
X182370296Y-110485074D02*
X182351248Y-110446979D01*
X182351248Y-110446979D02*
X182351248Y-110332693D01*
X182351248Y-110332693D02*
X182370296Y-110294598D01*
X182370296Y-110294598D02*
X182389343Y-110275550D01*
X182389343Y-110275550D02*
X182427438Y-110256502D01*
X182427438Y-110256502D02*
X182503629Y-110256502D01*
X182503629Y-110256502D02*
X182541724Y-110275550D01*
X182789343Y-110523169D02*
X182751248Y-110504122D01*
X182751248Y-110504122D02*
X182732201Y-110485074D01*
X182732201Y-110485074D02*
X182713153Y-110446979D01*
X182713153Y-110446979D02*
X182713153Y-110332693D01*
X182713153Y-110332693D02*
X182732201Y-110294598D01*
X182732201Y-110294598D02*
X182751248Y-110275550D01*
X182751248Y-110275550D02*
X182789343Y-110256502D01*
X182789343Y-110256502D02*
X182846486Y-110256502D01*
X182846486Y-110256502D02*
X182884582Y-110275550D01*
X182884582Y-110275550D02*
X182903629Y-110294598D01*
X182903629Y-110294598D02*
X182922677Y-110332693D01*
X182922677Y-110332693D02*
X182922677Y-110446979D01*
X182922677Y-110446979D02*
X182903629Y-110485074D01*
X182903629Y-110485074D02*
X182884582Y-110504122D01*
X182884582Y-110504122D02*
X182846486Y-110523169D01*
X182846486Y-110523169D02*
X182789343Y-110523169D01*
X183094106Y-110485074D02*
X183113153Y-110504122D01*
X183113153Y-110504122D02*
X183094106Y-110523169D01*
X183094106Y-110523169D02*
X183075058Y-110504122D01*
X183075058Y-110504122D02*
X183094106Y-110485074D01*
X183094106Y-110485074D02*
X183094106Y-110523169D01*
X183436963Y-110504122D02*
X183398867Y-110523169D01*
X183398867Y-110523169D02*
X183322677Y-110523169D01*
X183322677Y-110523169D02*
X183284582Y-110504122D01*
X183284582Y-110504122D02*
X183265534Y-110466026D01*
X183265534Y-110466026D02*
X183265534Y-110313645D01*
X183265534Y-110313645D02*
X183284582Y-110275550D01*
X183284582Y-110275550D02*
X183322677Y-110256502D01*
X183322677Y-110256502D02*
X183398867Y-110256502D01*
X183398867Y-110256502D02*
X183436963Y-110275550D01*
X183436963Y-110275550D02*
X183456010Y-110313645D01*
X183456010Y-110313645D02*
X183456010Y-110351741D01*
X183456010Y-110351741D02*
X183265534Y-110389836D01*
X183798867Y-110523169D02*
X183798867Y-110123169D01*
X183798867Y-110504122D02*
X183760772Y-110523169D01*
X183760772Y-110523169D02*
X183684581Y-110523169D01*
X183684581Y-110523169D02*
X183646486Y-110504122D01*
X183646486Y-110504122D02*
X183627439Y-110485074D01*
X183627439Y-110485074D02*
X183608391Y-110446979D01*
X183608391Y-110446979D02*
X183608391Y-110332693D01*
X183608391Y-110332693D02*
X183627439Y-110294598D01*
X183627439Y-110294598D02*
X183646486Y-110275550D01*
X183646486Y-110275550D02*
X183684581Y-110256502D01*
X183684581Y-110256502D02*
X183760772Y-110256502D01*
X183760772Y-110256502D02*
X183798867Y-110275550D01*
X184160772Y-110256502D02*
X184160772Y-110523169D01*
X183989344Y-110256502D02*
X183989344Y-110466026D01*
X183989344Y-110466026D02*
X184008391Y-110504122D01*
X184008391Y-110504122D02*
X184046486Y-110523169D01*
X184046486Y-110523169D02*
X184103629Y-110523169D01*
X184103629Y-110523169D02*
X184141725Y-110504122D01*
X184141725Y-110504122D02*
X184160772Y-110485074D01*
X178256008Y-111167147D02*
X178256008Y-110957623D01*
X178256008Y-110957623D02*
X178236961Y-110919528D01*
X178236961Y-110919528D02*
X178198865Y-110900480D01*
X178198865Y-110900480D02*
X178122675Y-110900480D01*
X178122675Y-110900480D02*
X178084580Y-110919528D01*
X178256008Y-111148100D02*
X178217913Y-111167147D01*
X178217913Y-111167147D02*
X178122675Y-111167147D01*
X178122675Y-111167147D02*
X178084580Y-111148100D01*
X178084580Y-111148100D02*
X178065532Y-111110004D01*
X178065532Y-111110004D02*
X178065532Y-111071909D01*
X178065532Y-111071909D02*
X178084580Y-111033814D01*
X178084580Y-111033814D02*
X178122675Y-111014766D01*
X178122675Y-111014766D02*
X178217913Y-111014766D01*
X178217913Y-111014766D02*
X178256008Y-110995719D01*
X178617913Y-111167147D02*
X178617913Y-110957623D01*
X178617913Y-110957623D02*
X178598866Y-110919528D01*
X178598866Y-110919528D02*
X178560770Y-110900480D01*
X178560770Y-110900480D02*
X178484580Y-110900480D01*
X178484580Y-110900480D02*
X178446485Y-110919528D01*
X178617913Y-111148100D02*
X178579818Y-111167147D01*
X178579818Y-111167147D02*
X178484580Y-111167147D01*
X178484580Y-111167147D02*
X178446485Y-111148100D01*
X178446485Y-111148100D02*
X178427437Y-111110004D01*
X178427437Y-111110004D02*
X178427437Y-111071909D01*
X178427437Y-111071909D02*
X178446485Y-111033814D01*
X178446485Y-111033814D02*
X178484580Y-111014766D01*
X178484580Y-111014766D02*
X178579818Y-111014766D01*
X178579818Y-111014766D02*
X178617913Y-110995719D01*
X178808390Y-111167147D02*
X178808390Y-110900480D01*
X178808390Y-110976671D02*
X178827437Y-110938576D01*
X178827437Y-110938576D02*
X178846485Y-110919528D01*
X178846485Y-110919528D02*
X178884580Y-110900480D01*
X178884580Y-110900480D02*
X178922675Y-110900480D01*
X179017913Y-110900480D02*
X179227437Y-110900480D01*
X179227437Y-110900480D02*
X179017913Y-111167147D01*
X179017913Y-111167147D02*
X179227437Y-111167147D01*
X179551247Y-111167147D02*
X179551247Y-110957623D01*
X179551247Y-110957623D02*
X179532200Y-110919528D01*
X179532200Y-110919528D02*
X179494104Y-110900480D01*
X179494104Y-110900480D02*
X179417914Y-110900480D01*
X179417914Y-110900480D02*
X179379819Y-110919528D01*
X179551247Y-111148100D02*
X179513152Y-111167147D01*
X179513152Y-111167147D02*
X179417914Y-111167147D01*
X179417914Y-111167147D02*
X179379819Y-111148100D01*
X179379819Y-111148100D02*
X179360771Y-111110004D01*
X179360771Y-111110004D02*
X179360771Y-111071909D01*
X179360771Y-111071909D02*
X179379819Y-111033814D01*
X179379819Y-111033814D02*
X179417914Y-111014766D01*
X179417914Y-111014766D02*
X179513152Y-111014766D01*
X179513152Y-111014766D02*
X179551247Y-110995719D01*
X179913152Y-111148100D02*
X179875057Y-111167147D01*
X179875057Y-111167147D02*
X179798866Y-111167147D01*
X179798866Y-111167147D02*
X179760771Y-111148100D01*
X179760771Y-111148100D02*
X179741724Y-111129052D01*
X179741724Y-111129052D02*
X179722676Y-111090957D01*
X179722676Y-111090957D02*
X179722676Y-110976671D01*
X179722676Y-110976671D02*
X179741724Y-110938576D01*
X179741724Y-110938576D02*
X179760771Y-110919528D01*
X179760771Y-110919528D02*
X179798866Y-110900480D01*
X179798866Y-110900480D02*
X179875057Y-110900480D01*
X179875057Y-110900480D02*
X179913152Y-110919528D01*
X180332200Y-110976671D02*
X180313152Y-110957623D01*
X180313152Y-110957623D02*
X180275057Y-110938576D01*
X180275057Y-110938576D02*
X180236962Y-110938576D01*
X180236962Y-110938576D02*
X180198866Y-110957623D01*
X180198866Y-110957623D02*
X180179819Y-110976671D01*
X180179819Y-110976671D02*
X180160771Y-111014766D01*
X180160771Y-111014766D02*
X180160771Y-111052861D01*
X180160771Y-111052861D02*
X180179819Y-111090957D01*
X180179819Y-111090957D02*
X180198866Y-111110004D01*
X180198866Y-111110004D02*
X180236962Y-111129052D01*
X180236962Y-111129052D02*
X180275057Y-111129052D01*
X180275057Y-111129052D02*
X180313152Y-111110004D01*
X180313152Y-111110004D02*
X180332200Y-111090957D01*
X180332200Y-110938576D02*
X180332200Y-111090957D01*
X180332200Y-111090957D02*
X180351247Y-111110004D01*
X180351247Y-111110004D02*
X180370295Y-111110004D01*
X180370295Y-111110004D02*
X180408390Y-111090957D01*
X180408390Y-111090957D02*
X180427438Y-111052861D01*
X180427438Y-111052861D02*
X180427438Y-110957623D01*
X180427438Y-110957623D02*
X180389343Y-110900480D01*
X180389343Y-110900480D02*
X180332200Y-110862385D01*
X180332200Y-110862385D02*
X180256009Y-110843338D01*
X180256009Y-110843338D02*
X180179819Y-110862385D01*
X180179819Y-110862385D02*
X180122676Y-110900480D01*
X180122676Y-110900480D02*
X180084581Y-110957623D01*
X180084581Y-110957623D02*
X180065533Y-111033814D01*
X180065533Y-111033814D02*
X180084581Y-111110004D01*
X180084581Y-111110004D02*
X180122676Y-111167147D01*
X180122676Y-111167147D02*
X180179819Y-111205242D01*
X180179819Y-111205242D02*
X180256009Y-111224290D01*
X180256009Y-111224290D02*
X180332200Y-111205242D01*
X180332200Y-111205242D02*
X180389343Y-111167147D01*
X180770295Y-110900480D02*
X180770295Y-111167147D01*
X180598867Y-110900480D02*
X180598867Y-111110004D01*
X180598867Y-111110004D02*
X180617914Y-111148100D01*
X180617914Y-111148100D02*
X180656009Y-111167147D01*
X180656009Y-111167147D02*
X180713152Y-111167147D01*
X180713152Y-111167147D02*
X180751248Y-111148100D01*
X180751248Y-111148100D02*
X180770295Y-111129052D01*
X181132200Y-111148100D02*
X181094105Y-111167147D01*
X181094105Y-111167147D02*
X181017914Y-111167147D01*
X181017914Y-111167147D02*
X180979819Y-111148100D01*
X180979819Y-111148100D02*
X180960772Y-111129052D01*
X180960772Y-111129052D02*
X180941724Y-111090957D01*
X180941724Y-111090957D02*
X180941724Y-110976671D01*
X180941724Y-110976671D02*
X180960772Y-110938576D01*
X180960772Y-110938576D02*
X180979819Y-110919528D01*
X180979819Y-110919528D02*
X181017914Y-110900480D01*
X181017914Y-110900480D02*
X181094105Y-110900480D01*
X181094105Y-110900480D02*
X181132200Y-110919528D01*
X181303629Y-111167147D02*
X181303629Y-110767147D01*
X181475057Y-111167147D02*
X181475057Y-110957623D01*
X181475057Y-110957623D02*
X181456010Y-110919528D01*
X181456010Y-110919528D02*
X181417914Y-110900480D01*
X181417914Y-110900480D02*
X181360771Y-110900480D01*
X181360771Y-110900480D02*
X181322676Y-110919528D01*
X181322676Y-110919528D02*
X181303629Y-110938576D01*
X181665534Y-111167147D02*
X181665534Y-110900480D01*
X181665534Y-110767147D02*
X181646486Y-110786195D01*
X181646486Y-110786195D02*
X181665534Y-110805242D01*
X181665534Y-110805242D02*
X181684581Y-110786195D01*
X181684581Y-110786195D02*
X181665534Y-110767147D01*
X181665534Y-110767147D02*
X181665534Y-110805242D01*
X182027438Y-111148100D02*
X181989343Y-111167147D01*
X181989343Y-111167147D02*
X181913152Y-111167147D01*
X181913152Y-111167147D02*
X181875057Y-111148100D01*
X181875057Y-111148100D02*
X181856010Y-111129052D01*
X181856010Y-111129052D02*
X181836962Y-111090957D01*
X181836962Y-111090957D02*
X181836962Y-110976671D01*
X181836962Y-110976671D02*
X181856010Y-110938576D01*
X181856010Y-110938576D02*
X181875057Y-110919528D01*
X181875057Y-110919528D02*
X181913152Y-110900480D01*
X181913152Y-110900480D02*
X181989343Y-110900480D01*
X181989343Y-110900480D02*
X182027438Y-110919528D01*
X182370295Y-111167147D02*
X182370295Y-110957623D01*
X182370295Y-110957623D02*
X182351248Y-110919528D01*
X182351248Y-110919528D02*
X182313152Y-110900480D01*
X182313152Y-110900480D02*
X182236962Y-110900480D01*
X182236962Y-110900480D02*
X182198867Y-110919528D01*
X182370295Y-111148100D02*
X182332200Y-111167147D01*
X182332200Y-111167147D02*
X182236962Y-111167147D01*
X182236962Y-111167147D02*
X182198867Y-111148100D01*
X182198867Y-111148100D02*
X182179819Y-111110004D01*
X182179819Y-111110004D02*
X182179819Y-111071909D01*
X182179819Y-111071909D02*
X182198867Y-111033814D01*
X182198867Y-111033814D02*
X182236962Y-111014766D01*
X182236962Y-111014766D02*
X182332200Y-111014766D01*
X182332200Y-111014766D02*
X182370295Y-110995719D01*
X182732200Y-110900480D02*
X182732200Y-111224290D01*
X182732200Y-111224290D02*
X182713153Y-111262385D01*
X182713153Y-111262385D02*
X182694105Y-111281433D01*
X182694105Y-111281433D02*
X182656010Y-111300480D01*
X182656010Y-111300480D02*
X182598867Y-111300480D01*
X182598867Y-111300480D02*
X182560772Y-111281433D01*
X182732200Y-111148100D02*
X182694105Y-111167147D01*
X182694105Y-111167147D02*
X182617914Y-111167147D01*
X182617914Y-111167147D02*
X182579819Y-111148100D01*
X182579819Y-111148100D02*
X182560772Y-111129052D01*
X182560772Y-111129052D02*
X182541724Y-111090957D01*
X182541724Y-111090957D02*
X182541724Y-110976671D01*
X182541724Y-110976671D02*
X182560772Y-110938576D01*
X182560772Y-110938576D02*
X182579819Y-110919528D01*
X182579819Y-110919528D02*
X182617914Y-110900480D01*
X182617914Y-110900480D02*
X182694105Y-110900480D01*
X182694105Y-110900480D02*
X182732200Y-110919528D01*
X182979819Y-111167147D02*
X182941724Y-111148100D01*
X182941724Y-111148100D02*
X182922677Y-111129052D01*
X182922677Y-111129052D02*
X182903629Y-111090957D01*
X182903629Y-111090957D02*
X182903629Y-110976671D01*
X182903629Y-110976671D02*
X182922677Y-110938576D01*
X182922677Y-110938576D02*
X182941724Y-110919528D01*
X182941724Y-110919528D02*
X182979819Y-110900480D01*
X182979819Y-110900480D02*
X183036962Y-110900480D01*
X183036962Y-110900480D02*
X183075058Y-110919528D01*
X183075058Y-110919528D02*
X183094105Y-110938576D01*
X183094105Y-110938576D02*
X183113153Y-110976671D01*
X183113153Y-110976671D02*
X183113153Y-111090957D01*
X183113153Y-111090957D02*
X183094105Y-111129052D01*
X183094105Y-111129052D02*
X183075058Y-111148100D01*
X183075058Y-111148100D02*
X183036962Y-111167147D01*
X183036962Y-111167147D02*
X182979819Y-111167147D01*
X183284582Y-111129052D02*
X183303629Y-111148100D01*
X183303629Y-111148100D02*
X183284582Y-111167147D01*
X183284582Y-111167147D02*
X183265534Y-111148100D01*
X183265534Y-111148100D02*
X183284582Y-111129052D01*
X183284582Y-111129052D02*
X183284582Y-111167147D01*
X183627439Y-111148100D02*
X183589343Y-111167147D01*
X183589343Y-111167147D02*
X183513153Y-111167147D01*
X183513153Y-111167147D02*
X183475058Y-111148100D01*
X183475058Y-111148100D02*
X183456010Y-111110004D01*
X183456010Y-111110004D02*
X183456010Y-110957623D01*
X183456010Y-110957623D02*
X183475058Y-110919528D01*
X183475058Y-110919528D02*
X183513153Y-110900480D01*
X183513153Y-110900480D02*
X183589343Y-110900480D01*
X183589343Y-110900480D02*
X183627439Y-110919528D01*
X183627439Y-110919528D02*
X183646486Y-110957623D01*
X183646486Y-110957623D02*
X183646486Y-110995719D01*
X183646486Y-110995719D02*
X183456010Y-111033814D01*
X183989343Y-111167147D02*
X183989343Y-110767147D01*
X183989343Y-111148100D02*
X183951248Y-111167147D01*
X183951248Y-111167147D02*
X183875057Y-111167147D01*
X183875057Y-111167147D02*
X183836962Y-111148100D01*
X183836962Y-111148100D02*
X183817915Y-111129052D01*
X183817915Y-111129052D02*
X183798867Y-111090957D01*
X183798867Y-111090957D02*
X183798867Y-110976671D01*
X183798867Y-110976671D02*
X183817915Y-110938576D01*
X183817915Y-110938576D02*
X183836962Y-110919528D01*
X183836962Y-110919528D02*
X183875057Y-110900480D01*
X183875057Y-110900480D02*
X183951248Y-110900480D01*
X183951248Y-110900480D02*
X183989343Y-110919528D01*
X184351248Y-110900480D02*
X184351248Y-111167147D01*
X184179820Y-110900480D02*
X184179820Y-111110004D01*
X184179820Y-111110004D02*
X184198867Y-111148100D01*
X184198867Y-111148100D02*
X184236962Y-111167147D01*
X184236962Y-111167147D02*
X184294105Y-111167147D01*
X184294105Y-111167147D02*
X184332201Y-111148100D01*
X184332201Y-111148100D02*
X184351248Y-111129052D01*
D11*
G36*
X163052592Y-96571120D02*
G01*
X163021988Y-96795432D01*
X162971766Y-96795432D01*
X162959328Y-96571120D01*
X163052592Y-96571120D01*
G37*
G36*
X163214201Y-96571120D02*
G01*
X163184068Y-96795432D01*
X163133418Y-96795432D01*
X163121450Y-96571120D01*
X163214201Y-96571120D01*
G37*
G36*
X163666502Y-97127712D02*
G01*
X163686848Y-97184731D01*
X163696935Y-97202674D01*
X163708091Y-97215334D01*
X163722174Y-97224582D01*
X163742071Y-97231577D01*
X163742071Y-97255000D01*
X163521605Y-97255000D01*
X163521605Y-97231577D01*
X163557253Y-97221062D01*
X163567578Y-97214090D01*
X163574692Y-97205034D01*
X163578841Y-97193681D01*
X163580419Y-97177507D01*
X163576572Y-97142288D01*
X163565630Y-97099673D01*
X163547935Y-97037526D01*
X163325075Y-97037526D01*
X163308833Y-97084799D01*
X163292548Y-97138612D01*
X163288744Y-97171780D01*
X163292757Y-97197676D01*
X163303319Y-97213881D01*
X163320526Y-97224484D01*
X163348028Y-97231577D01*
X163348028Y-97255000D01*
X163143847Y-97255000D01*
X163143847Y-97231577D01*
X163160454Y-97226437D01*
X163175876Y-97216371D01*
X163190479Y-97200503D01*
X163208831Y-97170282D01*
X163228990Y-97123823D01*
X163277333Y-96995125D01*
X163337984Y-96995125D01*
X163537890Y-96995125D01*
X163447020Y-96686738D01*
X163337984Y-96995125D01*
X163277333Y-96995125D01*
X163428384Y-96593004D01*
X163503910Y-96593004D01*
X163666502Y-97127712D01*
G37*
G36*
X163926505Y-96871300D02*
G01*
X163933173Y-96873224D01*
X163980275Y-96829925D01*
X164015922Y-96806460D01*
X164048193Y-96793808D01*
X164079053Y-96789961D01*
X164110231Y-96792637D01*
X164135842Y-96800124D01*
X164156973Y-96811974D01*
X164174436Y-96828569D01*
X164188347Y-96850659D01*
X164198604Y-96879464D01*
X164256691Y-96825865D01*
X164279486Y-96810422D01*
X164302083Y-96799322D01*
X164325982Y-96792340D01*
X164352092Y-96789961D01*
X164382769Y-96792452D01*
X164407273Y-96799322D01*
X164428675Y-96811142D01*
X164446510Y-96828002D01*
X164460114Y-96849273D01*
X164469933Y-96876557D01*
X164475264Y-96908265D01*
X164477370Y-96955033D01*
X164477370Y-97135406D01*
X164479764Y-97185671D01*
X164486688Y-97207171D01*
X164500280Y-97220335D01*
X164530927Y-97231577D01*
X164530927Y-97255000D01*
X164342988Y-97255000D01*
X164342988Y-97231577D01*
X164369745Y-97221532D01*
X164383380Y-97209564D01*
X164387977Y-97200672D01*
X164392014Y-97185885D01*
X164395134Y-97137329D01*
X164395134Y-97011966D01*
X164392954Y-96944774D01*
X164386243Y-96902459D01*
X164375259Y-96877540D01*
X164360683Y-96861769D01*
X164341535Y-96851254D01*
X164312384Y-96847407D01*
X164293823Y-96849343D01*
X164276780Y-96855058D01*
X164260462Y-96864697D01*
X164240919Y-96880874D01*
X164223761Y-96899732D01*
X164212923Y-96917462D01*
X164206590Y-96936947D01*
X164204331Y-96960760D01*
X164204331Y-97135406D01*
X164206725Y-97185671D01*
X164213649Y-97207171D01*
X164227241Y-97220335D01*
X164257888Y-97231577D01*
X164257888Y-97255000D01*
X164069949Y-97255000D01*
X164069949Y-97231577D01*
X164096706Y-97221532D01*
X164110341Y-97209564D01*
X164114938Y-97200672D01*
X164118975Y-97185885D01*
X164122095Y-97137329D01*
X164122095Y-97011966D01*
X164119701Y-96942637D01*
X164112264Y-96899553D01*
X164106295Y-96884339D01*
X164099356Y-96873224D01*
X164083327Y-96857922D01*
X164064221Y-96850057D01*
X164039345Y-96847407D01*
X164020295Y-96849626D01*
X164002501Y-96856255D01*
X163985674Y-96866682D01*
X163967367Y-96881857D01*
X163951345Y-96899351D01*
X163940354Y-96916778D01*
X163933577Y-96935575D01*
X163931292Y-96955973D01*
X163931292Y-97135406D01*
X163932703Y-97177037D01*
X163937233Y-97199520D01*
X163945141Y-97212684D01*
X163958776Y-97222259D01*
X163985319Y-97231577D01*
X163985319Y-97255000D01*
X163797850Y-97255000D01*
X163797850Y-97231577D01*
X163823923Y-97221575D01*
X163837558Y-97209607D01*
X163842271Y-97200722D01*
X163846149Y-97186184D01*
X163849013Y-97136945D01*
X163849013Y-96928618D01*
X163848073Y-96879421D01*
X163845749Y-96861872D01*
X163841362Y-96849544D01*
X163834165Y-96839771D01*
X163823923Y-96832832D01*
X163790712Y-96823514D01*
X163790712Y-96798168D01*
X163902569Y-96792697D01*
X163931762Y-96792697D01*
X163926505Y-96871300D01*
G37*
G36*
X164873755Y-96794107D02*
G01*
X164905223Y-96805006D01*
X164930164Y-96823900D01*
X164948222Y-96851126D01*
X164958393Y-96886377D01*
X164962583Y-96944817D01*
X164962583Y-97111128D01*
X164963053Y-97161094D01*
X164965960Y-97188107D01*
X164973098Y-97207940D01*
X164987203Y-97220592D01*
X165017593Y-97231577D01*
X165017593Y-97255000D01*
X164886587Y-97255000D01*
X164888981Y-97187124D01*
X164881800Y-97185244D01*
X164839457Y-97223102D01*
X164803581Y-97245511D01*
X164765953Y-97258769D01*
X164725918Y-97263206D01*
X164691080Y-97259541D01*
X164661804Y-97249101D01*
X164637192Y-97231966D01*
X164619275Y-97209351D01*
X164608268Y-97182186D01*
X164604444Y-97150152D01*
X164605995Y-97138227D01*
X164687151Y-97138227D01*
X164690151Y-97163648D01*
X164698135Y-97181397D01*
X164710728Y-97194867D01*
X164725875Y-97203196D01*
X164743528Y-97207584D01*
X164765583Y-97209180D01*
X164796804Y-97205186D01*
X164824653Y-97193408D01*
X164848473Y-97175279D01*
X164865985Y-97153358D01*
X164877273Y-97128658D01*
X164880817Y-97105273D01*
X164880817Y-97038210D01*
X164815917Y-97041489D01*
X164768793Y-97050271D01*
X164735450Y-97062957D01*
X164713678Y-97077565D01*
X164698969Y-97094636D01*
X164690194Y-97114552D01*
X164687151Y-97138227D01*
X164605995Y-97138227D01*
X164608710Y-97117363D01*
X164621142Y-97089098D01*
X164642180Y-97064200D01*
X164673516Y-97042185D01*
X164707768Y-97026786D01*
X164752249Y-97013762D01*
X164809124Y-97003817D01*
X164880817Y-96997861D01*
X164880817Y-96966830D01*
X164878097Y-96919826D01*
X164871243Y-96888483D01*
X164858549Y-96863068D01*
X164841152Y-96846424D01*
X164818328Y-96836692D01*
X164786142Y-96833046D01*
X164761986Y-96835380D01*
X164742292Y-96841922D01*
X164726132Y-96852365D01*
X164706906Y-96875392D01*
X164691938Y-96910324D01*
X164629320Y-96910324D01*
X164629320Y-96849330D01*
X164705829Y-96814153D01*
X164767036Y-96796415D01*
X164797843Y-96791578D01*
X164829184Y-96789961D01*
X164873755Y-96794107D01*
G37*
G36*
X165061917Y-96822360D02*
G01*
X165084338Y-96816847D01*
X165100642Y-96809024D01*
X165113895Y-96798045D01*
X165123851Y-96784405D01*
X165131064Y-96768186D01*
X165136973Y-96746706D01*
X165147017Y-96680540D01*
X165214935Y-96680540D01*
X165214935Y-96798168D01*
X165369406Y-96798168D01*
X165369406Y-96846723D01*
X165214935Y-96846723D01*
X165214935Y-97059752D01*
X165218739Y-97133696D01*
X165224628Y-97159333D01*
X165233101Y-97176781D01*
X165244676Y-97190446D01*
X165256994Y-97199050D01*
X165271563Y-97203932D01*
X165291444Y-97205760D01*
X165310038Y-97203810D01*
X165327305Y-97198024D01*
X165343585Y-97188780D01*
X165360302Y-97175669D01*
X165381802Y-97201657D01*
X165347350Y-97230616D01*
X165317474Y-97248631D01*
X165286456Y-97259594D01*
X165254643Y-97263206D01*
X165215163Y-97258687D01*
X165185328Y-97246299D01*
X165162789Y-97226618D01*
X165147213Y-97200409D01*
X165136693Y-97163403D01*
X165132698Y-97112111D01*
X165132698Y-96846723D01*
X165061917Y-96846723D01*
X165061917Y-96822360D01*
G37*
G36*
X165670346Y-96794090D02*
G01*
X165706516Y-96805434D01*
X165737391Y-96823977D01*
X165760757Y-96847663D01*
X165778361Y-96876980D01*
X165792343Y-96915282D01*
X165800762Y-96959258D01*
X165805038Y-97021796D01*
X165503789Y-97021796D01*
X165503789Y-97030174D01*
X165507205Y-97082747D01*
X165516441Y-97123566D01*
X165526978Y-97147929D01*
X165540816Y-97167853D01*
X165558029Y-97183961D01*
X165578374Y-97195698D01*
X165603117Y-97203109D01*
X165633341Y-97205760D01*
X165671141Y-97201958D01*
X165703866Y-97191014D01*
X165734031Y-97172429D01*
X165766313Y-97142843D01*
X165795464Y-97174302D01*
X165764839Y-97203984D01*
X165739257Y-97224481D01*
X165712535Y-97240631D01*
X165683094Y-97252948D01*
X165651488Y-97260557D01*
X165615689Y-97263206D01*
X165566888Y-97259062D01*
X165526888Y-97247484D01*
X165493982Y-97229195D01*
X165466945Y-97204136D01*
X165446323Y-97173609D01*
X165430660Y-97135505D01*
X165420466Y-97088197D01*
X165416765Y-97029704D01*
X165419777Y-96982728D01*
X165420043Y-96981448D01*
X165506182Y-96981448D01*
X165715150Y-96981448D01*
X165710101Y-96931645D01*
X165702199Y-96896048D01*
X165689175Y-96865921D01*
X165672109Y-96845227D01*
X165649572Y-96832213D01*
X165619493Y-96827575D01*
X165588639Y-96832039D01*
X165562856Y-96844999D01*
X165540846Y-96867111D01*
X165524940Y-96895001D01*
X165513068Y-96932293D01*
X165506182Y-96981448D01*
X165420043Y-96981448D01*
X165428425Y-96941039D01*
X165442325Y-96903870D01*
X165462150Y-96869768D01*
X165486372Y-96841924D01*
X165515244Y-96819624D01*
X165547938Y-96803323D01*
X165584024Y-96793385D01*
X165624280Y-96789961D01*
X165670346Y-96794090D01*
G37*
G36*
X165879965Y-96798168D02*
G01*
X166016229Y-96798168D01*
X166016229Y-97041672D01*
X166017485Y-97094255D01*
X166020546Y-97126815D01*
X166026402Y-97153986D01*
X166033454Y-97170840D01*
X166043710Y-97184341D01*
X166057817Y-97195716D01*
X166075500Y-97202984D01*
X166101372Y-97205760D01*
X166119173Y-97203976D01*
X166136250Y-97198622D01*
X166152962Y-97189421D01*
X166173564Y-97173532D01*
X166191807Y-97154896D01*
X166202971Y-97137885D01*
X166209512Y-97119149D01*
X166211818Y-97096681D01*
X166211818Y-96917077D01*
X166210365Y-96875874D01*
X166205578Y-96853605D01*
X166197713Y-96839970D01*
X166184805Y-96830396D01*
X166157792Y-96821291D01*
X166157792Y-96798168D01*
X166294055Y-96798168D01*
X166294055Y-97124549D01*
X166295465Y-97177593D01*
X166301706Y-97203409D01*
X166307723Y-97211965D01*
X166316537Y-97218925D01*
X166328697Y-97224139D01*
X166352398Y-97230166D01*
X166352398Y-97255000D01*
X166242892Y-97260471D01*
X166213742Y-97260471D01*
X166216605Y-97181867D01*
X166209425Y-97179944D01*
X166168869Y-97218723D01*
X166133599Y-97243117D01*
X166096885Y-97258342D01*
X166061194Y-97263206D01*
X166020246Y-97258590D01*
X165989472Y-97245981D01*
X165965135Y-97224870D01*
X165947370Y-97194562D01*
X165937480Y-97156640D01*
X165933522Y-97098135D01*
X165933522Y-96917291D01*
X165930402Y-96862068D01*
X165925690Y-96848225D01*
X165918434Y-96838132D01*
X165906588Y-96830552D01*
X165879965Y-96821591D01*
X165879965Y-96798168D01*
G37*
G36*
X166561495Y-96876771D02*
G01*
X166568162Y-96878224D01*
X166594659Y-96848647D01*
X166616932Y-96828173D01*
X166640422Y-96811899D01*
X166665487Y-96799920D01*
X166692673Y-96792556D01*
X166724557Y-96789961D01*
X166774737Y-96792825D01*
X166774737Y-96902117D01*
X166720710Y-96902117D01*
X166708110Y-96878639D01*
X166696347Y-96864590D01*
X166681629Y-96856003D01*
X166660956Y-96852878D01*
X166644084Y-96855305D01*
X166626762Y-96862923D01*
X166610567Y-96874814D01*
X166593979Y-96892116D01*
X166580185Y-96911413D01*
X166572223Y-96927977D01*
X166567868Y-96945632D01*
X166566282Y-96967727D01*
X166566282Y-97135321D01*
X166567919Y-97175550D01*
X166571539Y-97195459D01*
X166578736Y-97210032D01*
X166588978Y-97219609D01*
X166602910Y-97225990D01*
X166625566Y-97231577D01*
X166625566Y-97255000D01*
X166432840Y-97255000D01*
X166432840Y-97231577D01*
X166458913Y-97221532D01*
X166472547Y-97209564D01*
X166477260Y-97200679D01*
X166481139Y-97186141D01*
X166484002Y-97136859D01*
X166484002Y-96928276D01*
X166483062Y-96879036D01*
X166480738Y-96861449D01*
X166476352Y-96849117D01*
X166469155Y-96839344D01*
X166458913Y-96832404D01*
X166425702Y-96823044D01*
X166425702Y-96798168D01*
X166537559Y-96792697D01*
X166566752Y-96792697D01*
X166561495Y-96876771D01*
G37*
G36*
X167157624Y-96902117D02*
G01*
X167111719Y-96902117D01*
X167099699Y-96875705D01*
X167086843Y-96857281D01*
X167071287Y-96843143D01*
X167054316Y-96834242D01*
X167035006Y-96829378D01*
X167009863Y-96827575D01*
X166984942Y-96829787D01*
X166964949Y-96835923D01*
X166948870Y-96845569D01*
X166936314Y-96858926D01*
X166928801Y-96875005D01*
X166926174Y-96894680D01*
X166928592Y-96915426D01*
X166935235Y-96931140D01*
X166946307Y-96944520D01*
X166963445Y-96957982D01*
X166986520Y-96970798D01*
X167030893Y-96991022D01*
X167076529Y-97012484D01*
X167106205Y-97029789D01*
X167130224Y-97049264D01*
X167147793Y-97070908D01*
X167158961Y-97096063D01*
X167162882Y-97126857D01*
X167159427Y-97162782D01*
X167149973Y-97190501D01*
X167134402Y-97213962D01*
X167113599Y-97232602D01*
X167088477Y-97246363D01*
X167057906Y-97256025D01*
X167024793Y-97261344D01*
X166987381Y-97263206D01*
X166947569Y-97261703D01*
X166909419Y-97257265D01*
X166835816Y-97241878D01*
X166835816Y-97142843D01*
X166882662Y-97142843D01*
X166893385Y-97170707D01*
X166906205Y-97191272D01*
X166920916Y-97205974D01*
X166938833Y-97216410D01*
X166961664Y-97223139D01*
X166990715Y-97225593D01*
X167024439Y-97222002D01*
X167040206Y-97217147D01*
X167053845Y-97210034D01*
X167065369Y-97200239D01*
X167074405Y-97187295D01*
X167080001Y-97171779D01*
X167082056Y-97151349D01*
X167079472Y-97128449D01*
X167072481Y-97111641D01*
X167060829Y-97097454D01*
X167042861Y-97083602D01*
X167018669Y-97070428D01*
X166972079Y-97049365D01*
X166931036Y-97030470D01*
X166902238Y-97013932D01*
X166878453Y-96994853D01*
X166860906Y-96973284D01*
X166849755Y-96948156D01*
X166845860Y-96917761D01*
X166848309Y-96892304D01*
X166855408Y-96869781D01*
X166867103Y-96849587D01*
X166882899Y-96832227D01*
X166903136Y-96817467D01*
X166928567Y-96805306D01*
X166970838Y-96794024D01*
X167022772Y-96789961D01*
X167083722Y-96793081D01*
X167157624Y-96805177D01*
X167157624Y-96902117D01*
G37*
G36*
X167593726Y-96872753D02*
G01*
X167595649Y-96873224D01*
X167628316Y-96841272D01*
X167651343Y-96822531D01*
X167674193Y-96808450D01*
X167697248Y-96798339D01*
X167721689Y-96792116D01*
X167749138Y-96789961D01*
X167782405Y-96793011D01*
X167811378Y-96801780D01*
X167836888Y-96816077D01*
X167858723Y-96835613D01*
X167877542Y-96861346D01*
X167893308Y-96894424D01*
X167903890Y-96929774D01*
X167910730Y-96971999D01*
X167913183Y-97022267D01*
X167910281Y-97073980D01*
X167902160Y-97117565D01*
X167889504Y-97154255D01*
X167870834Y-97187794D01*
X167847642Y-97214659D01*
X167819663Y-97235680D01*
X167787864Y-97250673D01*
X167751745Y-97259963D01*
X167710413Y-97263206D01*
X167675618Y-97261552D01*
X167643692Y-97256752D01*
X167612352Y-97248157D01*
X167577954Y-97234184D01*
X167544487Y-97263206D01*
X167511489Y-97255000D01*
X167511489Y-96956144D01*
X167593726Y-96956144D01*
X167593726Y-97083175D01*
X167597060Y-97141946D01*
X167601777Y-97162591D01*
X167608301Y-97178148D01*
X167617764Y-97191658D01*
X167631254Y-97204521D01*
X167647236Y-97214644D01*
X167664978Y-97221062D01*
X167706609Y-97225593D01*
X167734136Y-97222520D01*
X167757226Y-97213745D01*
X167776863Y-97199346D01*
X167793590Y-97178619D01*
X167808858Y-97145795D01*
X167819292Y-97100087D01*
X167823253Y-97037697D01*
X167819621Y-96974456D01*
X167810084Y-96928196D01*
X167796240Y-96895108D01*
X167780685Y-96873891D01*
X167762323Y-96859313D01*
X167740667Y-96850491D01*
X167714730Y-96847407D01*
X167688699Y-96849647D01*
X167668312Y-96855785D01*
X167649782Y-96866134D01*
X167630314Y-96881857D01*
X167613415Y-96900102D01*
X167602574Y-96916821D01*
X167596009Y-96934974D01*
X167593726Y-96956144D01*
X167511489Y-96956144D01*
X167511489Y-96736063D01*
X167510763Y-96672077D01*
X167506959Y-96641260D01*
X167498325Y-96621470D01*
X167483536Y-96610015D01*
X167449812Y-96601424D01*
X167449812Y-96576591D01*
X167565516Y-96571120D01*
X167593726Y-96571120D01*
X167593726Y-96872753D01*
G37*
G36*
X167997942Y-96798168D02*
G01*
X168134205Y-96798168D01*
X168134205Y-97041672D01*
X168135461Y-97094255D01*
X168138522Y-97126815D01*
X168144378Y-97153986D01*
X168151430Y-97170840D01*
X168161686Y-97184341D01*
X168175793Y-97195716D01*
X168193476Y-97202984D01*
X168219348Y-97205760D01*
X168237149Y-97203976D01*
X168254226Y-97198622D01*
X168270939Y-97189421D01*
X168291540Y-97173532D01*
X168309784Y-97154896D01*
X168320947Y-97137885D01*
X168327488Y-97119149D01*
X168329795Y-97096681D01*
X168329795Y-96917077D01*
X168328341Y-96875874D01*
X168323554Y-96853605D01*
X168315689Y-96839970D01*
X168302781Y-96830396D01*
X168275768Y-96821291D01*
X168275768Y-96798168D01*
X168412031Y-96798168D01*
X168412031Y-97124549D01*
X168413442Y-97177593D01*
X168419682Y-97203409D01*
X168425699Y-97211965D01*
X168434514Y-97218925D01*
X168446673Y-97224139D01*
X168470375Y-97230166D01*
X168470375Y-97255000D01*
X168360868Y-97260471D01*
X168331718Y-97260471D01*
X168334582Y-97181867D01*
X168327401Y-97179944D01*
X168286845Y-97218723D01*
X168251576Y-97243117D01*
X168214861Y-97258342D01*
X168179170Y-97263206D01*
X168138223Y-97258590D01*
X168107448Y-97245981D01*
X168083111Y-97224870D01*
X168065347Y-97194562D01*
X168055456Y-97156640D01*
X168051498Y-97098135D01*
X168051498Y-96917291D01*
X168048378Y-96862068D01*
X168043667Y-96848225D01*
X168036410Y-96838132D01*
X168024565Y-96830552D01*
X167997942Y-96821591D01*
X167997942Y-96798168D01*
G37*
G36*
X168687122Y-96609417D02*
G01*
X168687122Y-96702424D01*
X168599115Y-96702424D01*
X168599115Y-96609417D01*
X168687122Y-96609417D01*
G37*
G36*
X168550346Y-97231577D02*
G01*
X168576889Y-97221575D01*
X168590267Y-97209607D01*
X168594864Y-97200746D01*
X168598859Y-97186184D01*
X168601979Y-97136987D01*
X168601979Y-96928618D01*
X168601038Y-96879421D01*
X168598715Y-96861872D01*
X168594328Y-96849544D01*
X168587131Y-96839771D01*
X168576889Y-96832832D01*
X168543678Y-96823514D01*
X168543678Y-96798168D01*
X168655065Y-96792697D01*
X168684258Y-96792697D01*
X168684258Y-97135278D01*
X168685436Y-97173352D01*
X168688062Y-97192553D01*
X168693809Y-97206966D01*
X168702637Y-97216959D01*
X168715410Y-97224204D01*
X168737814Y-97231577D01*
X168737814Y-97255000D01*
X168550346Y-97255000D01*
X168550346Y-97231577D01*
G37*
G36*
X168950202Y-97135534D02*
G01*
X168951380Y-97173491D01*
X168954006Y-97192638D01*
X168959759Y-97207011D01*
X168968624Y-97217001D01*
X168981392Y-97224240D01*
X169003758Y-97231577D01*
X169003758Y-97255000D01*
X168813939Y-97255000D01*
X168813939Y-97231619D01*
X168835809Y-97224627D01*
X168847150Y-97218711D01*
X168855288Y-97211258D01*
X168860571Y-97202725D01*
X168866298Y-97177422D01*
X168867965Y-97135662D01*
X168867965Y-96736063D01*
X168867239Y-96672077D01*
X168863392Y-96641260D01*
X168854801Y-96621470D01*
X168839969Y-96610015D01*
X168806288Y-96601424D01*
X168806288Y-96576591D01*
X168921522Y-96571120D01*
X168950202Y-96571120D01*
X168950202Y-97135534D01*
G37*
G36*
X169059879Y-96822360D02*
G01*
X169082300Y-96816847D01*
X169098604Y-96809024D01*
X169111857Y-96798045D01*
X169121813Y-96784405D01*
X169129026Y-96768186D01*
X169134935Y-96746706D01*
X169144979Y-96680540D01*
X169212897Y-96680540D01*
X169212897Y-96798168D01*
X169367369Y-96798168D01*
X169367369Y-96846723D01*
X169212897Y-96846723D01*
X169212897Y-97059752D01*
X169216701Y-97133696D01*
X169222590Y-97159333D01*
X169231063Y-97176781D01*
X169242638Y-97190446D01*
X169254956Y-97199050D01*
X169269526Y-97203932D01*
X169289406Y-97205760D01*
X169308000Y-97203810D01*
X169325267Y-97198024D01*
X169341547Y-97188780D01*
X169358265Y-97175669D01*
X169379764Y-97201657D01*
X169345312Y-97230616D01*
X169315437Y-97248631D01*
X169284418Y-97259594D01*
X169252605Y-97263206D01*
X169213125Y-97258687D01*
X169183290Y-97246299D01*
X169160751Y-97226618D01*
X169145176Y-97200409D01*
X169134655Y-97163403D01*
X169130661Y-97112111D01*
X169130661Y-96846723D01*
X169059879Y-96846723D01*
X169059879Y-96822360D01*
G37*
G36*
X169606299Y-96822360D02*
G01*
X169628720Y-96816847D01*
X169645024Y-96809024D01*
X169658277Y-96798045D01*
X169668233Y-96784405D01*
X169675446Y-96768186D01*
X169681355Y-96746706D01*
X169691400Y-96680540D01*
X169759317Y-96680540D01*
X169759317Y-96798168D01*
X169913789Y-96798168D01*
X169913789Y-96846723D01*
X169759317Y-96846723D01*
X169759317Y-97059752D01*
X169763121Y-97133696D01*
X169769010Y-97159333D01*
X169777483Y-97176781D01*
X169789058Y-97190446D01*
X169801376Y-97199050D01*
X169815946Y-97203932D01*
X169835826Y-97205760D01*
X169854420Y-97203810D01*
X169871687Y-97198024D01*
X169887967Y-97188780D01*
X169904685Y-97175669D01*
X169926184Y-97201657D01*
X169891733Y-97230616D01*
X169861857Y-97248631D01*
X169830838Y-97259594D01*
X169799025Y-97263206D01*
X169759545Y-97258687D01*
X169729710Y-97246299D01*
X169707172Y-97226618D01*
X169691596Y-97200409D01*
X169681075Y-97163403D01*
X169677081Y-97112111D01*
X169677081Y-96846723D01*
X169606299Y-96846723D01*
X169606299Y-96822360D01*
G37*
G36*
X170094119Y-96872753D02*
G01*
X170096043Y-96873224D01*
X170131998Y-96838865D01*
X170155113Y-96820351D01*
X170177180Y-96806897D01*
X170198155Y-96797612D01*
X170220003Y-96791909D01*
X170243804Y-96789961D01*
X170269262Y-96791603D01*
X170290649Y-96796202D01*
X170310135Y-96804105D01*
X170326767Y-96815094D01*
X170340822Y-96829114D01*
X170352113Y-96846168D01*
X170360442Y-96865757D01*
X170366688Y-96890192D01*
X170370148Y-96917486D01*
X170371475Y-96955033D01*
X170371475Y-97135406D01*
X170372604Y-97173740D01*
X170375066Y-97192125D01*
X170380262Y-97205816D01*
X170387974Y-97215548D01*
X170399988Y-97222851D01*
X170425502Y-97231577D01*
X170425502Y-97255000D01*
X170237136Y-97255000D01*
X170237136Y-97231577D01*
X170263893Y-97221532D01*
X170277527Y-97209564D01*
X170282115Y-97200672D01*
X170286119Y-97185885D01*
X170289239Y-97137329D01*
X170289239Y-97011966D01*
X170287365Y-96952101D01*
X170282785Y-96914641D01*
X170272710Y-96884159D01*
X170257438Y-96864162D01*
X170235799Y-96851926D01*
X170204609Y-96847407D01*
X170186131Y-96849142D01*
X170170158Y-96854118D01*
X170154735Y-96862706D01*
X170134767Y-96878011D01*
X170116705Y-96896013D01*
X170104420Y-96913444D01*
X170096685Y-96932245D01*
X170094119Y-96952169D01*
X170094119Y-97135406D01*
X170095786Y-97181824D01*
X170102283Y-97205034D01*
X170108238Y-97213431D01*
X170116858Y-97220335D01*
X170147206Y-97231577D01*
X170147206Y-97255000D01*
X169957856Y-97255000D01*
X169957856Y-97231577D01*
X169987947Y-97220592D01*
X170002052Y-97207256D01*
X170009489Y-97183876D01*
X170011883Y-97135620D01*
X170011883Y-96736020D01*
X170011156Y-96672077D01*
X170007352Y-96641260D01*
X169998718Y-96621470D01*
X169983929Y-96610015D01*
X169950205Y-96601424D01*
X169950205Y-96576591D01*
X170065439Y-96571120D01*
X170094119Y-96571120D01*
X170094119Y-96872753D01*
G37*
G36*
X170763201Y-96794090D02*
G01*
X170799371Y-96805434D01*
X170830245Y-96823977D01*
X170853611Y-96847663D01*
X170871215Y-96876980D01*
X170885198Y-96915282D01*
X170893616Y-96959258D01*
X170897892Y-97021796D01*
X170596643Y-97021796D01*
X170596643Y-97030174D01*
X170600059Y-97082747D01*
X170609295Y-97123566D01*
X170619832Y-97147929D01*
X170633670Y-97167853D01*
X170650883Y-97183961D01*
X170671228Y-97195698D01*
X170695971Y-97203109D01*
X170726195Y-97205760D01*
X170763995Y-97201958D01*
X170796721Y-97191014D01*
X170826885Y-97172429D01*
X170859167Y-97142843D01*
X170888318Y-97174302D01*
X170857693Y-97203984D01*
X170832111Y-97224481D01*
X170805389Y-97240631D01*
X170775948Y-97252948D01*
X170744342Y-97260557D01*
X170708543Y-97263206D01*
X170659743Y-97259062D01*
X170619742Y-97247484D01*
X170586836Y-97229195D01*
X170559799Y-97204136D01*
X170539177Y-97173609D01*
X170523514Y-97135505D01*
X170513321Y-97088197D01*
X170509619Y-97029704D01*
X170512631Y-96982728D01*
X170512897Y-96981448D01*
X170599036Y-96981448D01*
X170808005Y-96981448D01*
X170802955Y-96931645D01*
X170795054Y-96896048D01*
X170782029Y-96865921D01*
X170764963Y-96845227D01*
X170742426Y-96832213D01*
X170712347Y-96827575D01*
X170681493Y-96832039D01*
X170655711Y-96844999D01*
X170633701Y-96867111D01*
X170617794Y-96895001D01*
X170605922Y-96932293D01*
X170599036Y-96981448D01*
X170512897Y-96981448D01*
X170521280Y-96941039D01*
X170535179Y-96903870D01*
X170555004Y-96869768D01*
X170579226Y-96841924D01*
X170608098Y-96819624D01*
X170640793Y-96803323D01*
X170676878Y-96793385D01*
X170717134Y-96789961D01*
X170763201Y-96794090D01*
G37*
G36*
X171678840Y-97127712D02*
G01*
X171699186Y-97184731D01*
X171709273Y-97202674D01*
X171720429Y-97215334D01*
X171734512Y-97224582D01*
X171754409Y-97231577D01*
X171754409Y-97255000D01*
X171533943Y-97255000D01*
X171533943Y-97231577D01*
X171569590Y-97221062D01*
X171579916Y-97214090D01*
X171587029Y-97205034D01*
X171591179Y-97193681D01*
X171592757Y-97177507D01*
X171588910Y-97142288D01*
X171577968Y-97099673D01*
X171560273Y-97037526D01*
X171337413Y-97037526D01*
X171321171Y-97084799D01*
X171304886Y-97138612D01*
X171301082Y-97171780D01*
X171305095Y-97197676D01*
X171315657Y-97213881D01*
X171332863Y-97224484D01*
X171360366Y-97231577D01*
X171360366Y-97255000D01*
X171156185Y-97255000D01*
X171156185Y-97231577D01*
X171172792Y-97226437D01*
X171188214Y-97216371D01*
X171202817Y-97200503D01*
X171221169Y-97170282D01*
X171241328Y-97123823D01*
X171289671Y-96995125D01*
X171350321Y-96995125D01*
X171550228Y-96995125D01*
X171459357Y-96686738D01*
X171350321Y-96995125D01*
X171289671Y-96995125D01*
X171440722Y-96593004D01*
X171516248Y-96593004D01*
X171678840Y-97127712D01*
G37*
G36*
X171938843Y-96876771D02*
G01*
X171945511Y-96878224D01*
X171972008Y-96848647D01*
X171994280Y-96828173D01*
X172017771Y-96811899D01*
X172042835Y-96799920D01*
X172070021Y-96792556D01*
X172101905Y-96789961D01*
X172152085Y-96792825D01*
X172152085Y-96902117D01*
X172098059Y-96902117D01*
X172085458Y-96878639D01*
X172073695Y-96864590D01*
X172058977Y-96856003D01*
X172038305Y-96852878D01*
X172021432Y-96855305D01*
X172004111Y-96862923D01*
X171987915Y-96874814D01*
X171971327Y-96892116D01*
X171957534Y-96911413D01*
X171949571Y-96927977D01*
X171945216Y-96945632D01*
X171943630Y-96967727D01*
X171943630Y-97135321D01*
X171945267Y-97175550D01*
X171948887Y-97195459D01*
X171956084Y-97210032D01*
X171966326Y-97219609D01*
X171980259Y-97225990D01*
X172002914Y-97231577D01*
X172002914Y-97255000D01*
X171810188Y-97255000D01*
X171810188Y-97231577D01*
X171836261Y-97221532D01*
X171849896Y-97209564D01*
X171854608Y-97200679D01*
X171858487Y-97186141D01*
X171861351Y-97136859D01*
X171861351Y-96928276D01*
X171860410Y-96879036D01*
X171858086Y-96861449D01*
X171853700Y-96849117D01*
X171846503Y-96839344D01*
X171836261Y-96832404D01*
X171803050Y-96823044D01*
X171803050Y-96798168D01*
X171914907Y-96792697D01*
X171944100Y-96792697D01*
X171938843Y-96876771D01*
G37*
G36*
X172337459Y-96989654D02*
G01*
X172352761Y-96989654D01*
X172378578Y-96986320D01*
X172404864Y-96971702D01*
X172445555Y-96936910D01*
X172478766Y-96901861D01*
X172494324Y-96875446D01*
X172498128Y-96855314D01*
X172495811Y-96842206D01*
X172489281Y-96832746D01*
X172478616Y-96826289D01*
X172460344Y-96821676D01*
X172460344Y-96798168D01*
X172666448Y-96798168D01*
X172666448Y-96821676D01*
X172644561Y-96828423D01*
X172619603Y-96841380D01*
X172595097Y-96858561D01*
X172568440Y-96881687D01*
X172458463Y-96986277D01*
X172596180Y-97165240D01*
X172620286Y-97194010D01*
X172639435Y-97211744D01*
X172659811Y-97224279D01*
X172681750Y-97231577D01*
X172681750Y-97255000D01*
X172498128Y-97255000D01*
X172498128Y-97231577D01*
X172516550Y-97226063D01*
X172520922Y-97220883D01*
X172522534Y-97212428D01*
X172519884Y-97198366D01*
X172509113Y-97179602D01*
X172479493Y-97138312D01*
X172422602Y-97062316D01*
X172399393Y-97034705D01*
X172384818Y-97025301D01*
X172364259Y-97022480D01*
X172337459Y-97022480D01*
X172337459Y-97135449D01*
X172338637Y-97173443D01*
X172341263Y-97192595D01*
X172347019Y-97207005D01*
X172355881Y-97217001D01*
X172368644Y-97224217D01*
X172391016Y-97231577D01*
X172391016Y-97255000D01*
X172201196Y-97255000D01*
X172201196Y-97231577D01*
X172223066Y-97224618D01*
X172234407Y-97218711D01*
X172242547Y-97211224D01*
X172247828Y-97202683D01*
X172253556Y-97177379D01*
X172255223Y-97135620D01*
X172255223Y-96736020D01*
X172254496Y-96672077D01*
X172250649Y-96641260D01*
X172242058Y-96621470D01*
X172227226Y-96610015D01*
X172193545Y-96601424D01*
X172193545Y-96576591D01*
X172308779Y-96571120D01*
X172337459Y-96571120D01*
X172337459Y-96989654D01*
G37*
G36*
X172848189Y-97142843D02*
G01*
X172853242Y-97176347D01*
X172854900Y-97208966D01*
X172851948Y-97241489D01*
X172843402Y-97270301D01*
X172829024Y-97297297D01*
X172806815Y-97325653D01*
X172778747Y-97353060D01*
X172737743Y-97386304D01*
X172711926Y-97357069D01*
X172733972Y-97333992D01*
X172747274Y-97315608D01*
X172756637Y-97296170D01*
X172763089Y-97273678D01*
X172766553Y-97248720D01*
X172767876Y-97214736D01*
X172764500Y-97142843D01*
X172848189Y-97142843D01*
G37*
G36*
X172853917Y-96822787D02*
G01*
X172853917Y-96934944D01*
X172758302Y-96934944D01*
X172758302Y-96822787D01*
X172853917Y-96822787D01*
G37*
G36*
X163259617Y-97969889D02*
G01*
X163291799Y-97981075D01*
X163319199Y-97999273D01*
X163342600Y-98025117D01*
X163359789Y-98055148D01*
X163373041Y-98092882D01*
X163381742Y-98139952D01*
X163384915Y-98198267D01*
X163381971Y-98250612D01*
X163373752Y-98294486D01*
X163360979Y-98331196D01*
X163342193Y-98364777D01*
X163319091Y-98391468D01*
X163291437Y-98412150D01*
X163259966Y-98426862D01*
X163224013Y-98436006D01*
X163182657Y-98439206D01*
X163148150Y-98437647D01*
X163118544Y-98433265D01*
X163090651Y-98426184D01*
X163065970Y-98417322D01*
X163065970Y-98517724D01*
X163068107Y-98563843D01*
X163071311Y-98578076D01*
X163075758Y-98587864D01*
X163082340Y-98595780D01*
X163091530Y-98602354D01*
X163124784Y-98612869D01*
X163124784Y-98636163D01*
X162929707Y-98636163D01*
X162929707Y-98613168D01*
X162957661Y-98603337D01*
X162967218Y-98597097D01*
X162974159Y-98588548D01*
X162978733Y-98577708D01*
X162981810Y-98562005D01*
X162983734Y-98517596D01*
X162983734Y-98132571D01*
X163065970Y-98132571D01*
X163065970Y-98259175D01*
X163067626Y-98302580D01*
X163071698Y-98330170D01*
X163079902Y-98353219D01*
X163092043Y-98370690D01*
X163107937Y-98384285D01*
X163126451Y-98393942D01*
X163148024Y-98399460D01*
X163178811Y-98401593D01*
X163206528Y-98398443D01*
X163229667Y-98389459D01*
X163249252Y-98374706D01*
X163265834Y-98353422D01*
X163280892Y-98319885D01*
X163291148Y-98273712D01*
X163295027Y-98211303D01*
X163290619Y-98143465D01*
X163279155Y-98095467D01*
X163262622Y-98062479D01*
X163241931Y-98040735D01*
X163216743Y-98027892D01*
X163185521Y-98023407D01*
X163159878Y-98025631D01*
X163139359Y-98031785D01*
X163120633Y-98042320D01*
X163100848Y-98058798D01*
X163083967Y-98077932D01*
X163073835Y-98094958D01*
X163067960Y-98112990D01*
X163065970Y-98132571D01*
X162983734Y-98132571D01*
X162983734Y-98107524D01*
X162982751Y-98058541D01*
X162978947Y-98034392D01*
X162970569Y-98018620D01*
X162955737Y-98008105D01*
X162924920Y-97999514D01*
X162924920Y-97974168D01*
X163037290Y-97968697D01*
X163066441Y-97968697D01*
X163060243Y-98047300D01*
X163067424Y-98049224D01*
X163114269Y-98005455D01*
X163149874Y-97982716D01*
X163185265Y-97969808D01*
X163221382Y-97965961D01*
X163259617Y-97969889D01*
G37*
G36*
X163609869Y-98052771D02*
G01*
X163616536Y-98054224D01*
X163643034Y-98024647D01*
X163665306Y-98004173D01*
X163688796Y-97987899D01*
X163713861Y-97975920D01*
X163741047Y-97968556D01*
X163772931Y-97965961D01*
X163823111Y-97968825D01*
X163823111Y-98078117D01*
X163769084Y-98078117D01*
X163756484Y-98054639D01*
X163744721Y-98040590D01*
X163730003Y-98032003D01*
X163709330Y-98028878D01*
X163692458Y-98031305D01*
X163675136Y-98038923D01*
X163658941Y-98050814D01*
X163642353Y-98068116D01*
X163628559Y-98087413D01*
X163620597Y-98103977D01*
X163616242Y-98121632D01*
X163614656Y-98143727D01*
X163614656Y-98311321D01*
X163616293Y-98351550D01*
X163619913Y-98371459D01*
X163627110Y-98386032D01*
X163637352Y-98395609D01*
X163651284Y-98401990D01*
X163673940Y-98407577D01*
X163673940Y-98431000D01*
X163481214Y-98431000D01*
X163481214Y-98407577D01*
X163507287Y-98397532D01*
X163520922Y-98385564D01*
X163525634Y-98376679D01*
X163529513Y-98362141D01*
X163532377Y-98312859D01*
X163532377Y-98104276D01*
X163531436Y-98055036D01*
X163529112Y-98037449D01*
X163524726Y-98025117D01*
X163517529Y-98015344D01*
X163507287Y-98008404D01*
X163474076Y-97999044D01*
X163474076Y-97974168D01*
X163585933Y-97968697D01*
X163615126Y-97968697D01*
X163609869Y-98052771D01*
G37*
G36*
X164137721Y-97970157D02*
G01*
X164179386Y-97981872D01*
X164213658Y-98000336D01*
X164241816Y-98025544D01*
X164263688Y-98056499D01*
X164280084Y-98094327D01*
X164290634Y-98140443D01*
X164294433Y-98196600D01*
X164291223Y-98249067D01*
X164282226Y-98293301D01*
X164268146Y-98330597D01*
X164247764Y-98364457D01*
X164222999Y-98391379D01*
X164193560Y-98412193D01*
X164160369Y-98426874D01*
X164122572Y-98436010D01*
X164079267Y-98439206D01*
X164029959Y-98435108D01*
X163989229Y-98423630D01*
X163955453Y-98405472D01*
X163927445Y-98380606D01*
X163905845Y-98350150D01*
X163889519Y-98312219D01*
X163878927Y-98265203D01*
X163875086Y-98207114D01*
X163875730Y-98197070D01*
X163965443Y-98197070D01*
X163969552Y-98262544D01*
X163980513Y-98311943D01*
X163996774Y-98348677D01*
X164014666Y-98372386D01*
X164035181Y-98388554D01*
X164058787Y-98398240D01*
X164086448Y-98401593D01*
X164116621Y-98397547D01*
X164140944Y-98386034D01*
X164161133Y-98368011D01*
X164177532Y-98344147D01*
X164189449Y-98316322D01*
X164197834Y-98283068D01*
X164202488Y-98247855D01*
X164204075Y-98210491D01*
X164199804Y-98143292D01*
X164188517Y-98093633D01*
X164176095Y-98063786D01*
X164161929Y-98041507D01*
X164146202Y-98025373D01*
X164127419Y-98013218D01*
X164107191Y-98006016D01*
X164084994Y-98003575D01*
X164057414Y-98006801D01*
X164033993Y-98016084D01*
X164013774Y-98031479D01*
X163996261Y-98053882D01*
X163980216Y-98088848D01*
X163969461Y-98135532D01*
X163965443Y-98197070D01*
X163875730Y-98197070D01*
X163878426Y-98155038D01*
X163887814Y-98110968D01*
X163902569Y-98073629D01*
X163923648Y-98039729D01*
X163948670Y-98012993D01*
X163977882Y-97992547D01*
X164010692Y-97977969D01*
X164046811Y-97969040D01*
X164086918Y-97965961D01*
X164137721Y-97970157D01*
G37*
G36*
X164636800Y-98022723D02*
G01*
X164522506Y-98022723D01*
X164522506Y-98311620D01*
X164525584Y-98359876D01*
X164529708Y-98374881D01*
X164534688Y-98384453D01*
X164550460Y-98397831D01*
X164581790Y-98407619D01*
X164581790Y-98431000D01*
X164386201Y-98431000D01*
X164386201Y-98407577D01*
X164416334Y-98396592D01*
X164430439Y-98383213D01*
X164437876Y-98359833D01*
X164440270Y-98311620D01*
X164440270Y-98022723D01*
X164382397Y-98022723D01*
X164382397Y-97998189D01*
X164406546Y-97993658D01*
X164418001Y-97988572D01*
X164427575Y-97978955D01*
X164434756Y-97960661D01*
X164439757Y-97926852D01*
X164447123Y-97878051D01*
X164458649Y-97843162D01*
X164476520Y-97813413D01*
X164501178Y-97788281D01*
X164530435Y-97768785D01*
X164560975Y-97756352D01*
X164594306Y-97749589D01*
X164635817Y-97747120D01*
X164672169Y-97748579D01*
X164699888Y-97752462D01*
X164699888Y-97840127D01*
X164652572Y-97840127D01*
X164641884Y-97814048D01*
X164631286Y-97799436D01*
X164617212Y-97790663D01*
X164597092Y-97787468D01*
X164570549Y-97791743D01*
X164550674Y-97804950D01*
X164542518Y-97815031D01*
X164535158Y-97828971D01*
X164529742Y-97845095D01*
X164525584Y-97866457D01*
X164522506Y-97924672D01*
X164522506Y-97974168D01*
X164636800Y-97974168D01*
X164636800Y-98022723D01*
G37*
G36*
X164932440Y-97970090D02*
G01*
X164968610Y-97981434D01*
X164999485Y-97999977D01*
X165022850Y-98023663D01*
X165040455Y-98052980D01*
X165054437Y-98091282D01*
X165062856Y-98135258D01*
X165067131Y-98197796D01*
X164765882Y-98197796D01*
X164765882Y-98206174D01*
X164769298Y-98258747D01*
X164778534Y-98299566D01*
X164789072Y-98323929D01*
X164802910Y-98343853D01*
X164820122Y-98359961D01*
X164840468Y-98371698D01*
X164865210Y-98379109D01*
X164895435Y-98381760D01*
X164933235Y-98377958D01*
X164965960Y-98367014D01*
X164996124Y-98348429D01*
X165028407Y-98318843D01*
X165057557Y-98350302D01*
X165026933Y-98379984D01*
X165001351Y-98400481D01*
X164974629Y-98416631D01*
X164945187Y-98428948D01*
X164913582Y-98436557D01*
X164877782Y-98439206D01*
X164828982Y-98435062D01*
X164788981Y-98423484D01*
X164756076Y-98405195D01*
X164729038Y-98380136D01*
X164708416Y-98349609D01*
X164692753Y-98311505D01*
X164682560Y-98264197D01*
X164678859Y-98205704D01*
X164681871Y-98158728D01*
X164682137Y-98157448D01*
X164768276Y-98157448D01*
X164977244Y-98157448D01*
X164972194Y-98107645D01*
X164964293Y-98072048D01*
X164951268Y-98041921D01*
X164934202Y-98021227D01*
X164911666Y-98008213D01*
X164881586Y-98003575D01*
X164850732Y-98008039D01*
X164824950Y-98020999D01*
X164802940Y-98043111D01*
X164787034Y-98071001D01*
X164775162Y-98108293D01*
X164768276Y-98157448D01*
X164682137Y-98157448D01*
X164690519Y-98117039D01*
X164704419Y-98079870D01*
X164724243Y-98045768D01*
X164748465Y-98017924D01*
X164777337Y-97995624D01*
X164810032Y-97979323D01*
X164846117Y-97969385D01*
X164886373Y-97965961D01*
X164932440Y-97970090D01*
G37*
G36*
X165473912Y-98078117D02*
G01*
X165428006Y-98078117D01*
X165415987Y-98051705D01*
X165403130Y-98033281D01*
X165387575Y-98019143D01*
X165370603Y-98010242D01*
X165351294Y-98005378D01*
X165326151Y-98003575D01*
X165301230Y-98005787D01*
X165281236Y-98011923D01*
X165265157Y-98021569D01*
X165252602Y-98034926D01*
X165245089Y-98051005D01*
X165242461Y-98070680D01*
X165244879Y-98091426D01*
X165251523Y-98107140D01*
X165262594Y-98120520D01*
X165279733Y-98133982D01*
X165302807Y-98146798D01*
X165347180Y-98167022D01*
X165392816Y-98188484D01*
X165422493Y-98205789D01*
X165446511Y-98225264D01*
X165464081Y-98246908D01*
X165475249Y-98272063D01*
X165479169Y-98302857D01*
X165475714Y-98338782D01*
X165466261Y-98366501D01*
X165450690Y-98389962D01*
X165429887Y-98408602D01*
X165404765Y-98422363D01*
X165374193Y-98432025D01*
X165341081Y-98437344D01*
X165303668Y-98439206D01*
X165263856Y-98437703D01*
X165225706Y-98433265D01*
X165152103Y-98417878D01*
X165152103Y-98318843D01*
X165198949Y-98318843D01*
X165209672Y-98346707D01*
X165222492Y-98367272D01*
X165237204Y-98381974D01*
X165255120Y-98392410D01*
X165277952Y-98399139D01*
X165307002Y-98401593D01*
X165340726Y-98398002D01*
X165356494Y-98393147D01*
X165370133Y-98386034D01*
X165381656Y-98376239D01*
X165390692Y-98363295D01*
X165396289Y-98347779D01*
X165398343Y-98327349D01*
X165395759Y-98304449D01*
X165388769Y-98287641D01*
X165377116Y-98273454D01*
X165359148Y-98259602D01*
X165334957Y-98246428D01*
X165288367Y-98225365D01*
X165247323Y-98206470D01*
X165218525Y-98189932D01*
X165194740Y-98170853D01*
X165177193Y-98149284D01*
X165166042Y-98124156D01*
X165162148Y-98093761D01*
X165164597Y-98068304D01*
X165171695Y-98045781D01*
X165183391Y-98025587D01*
X165199187Y-98008227D01*
X165219423Y-97993467D01*
X165244855Y-97981306D01*
X165287125Y-97970024D01*
X165339059Y-97965961D01*
X165400010Y-97969081D01*
X165473912Y-97981177D01*
X165473912Y-98078117D01*
G37*
G36*
X165894498Y-98078117D02*
G01*
X165848592Y-98078117D01*
X165836573Y-98051705D01*
X165823716Y-98033281D01*
X165808161Y-98019143D01*
X165791189Y-98010242D01*
X165771880Y-98005378D01*
X165746737Y-98003575D01*
X165721816Y-98005787D01*
X165701822Y-98011923D01*
X165685744Y-98021569D01*
X165673188Y-98034926D01*
X165665675Y-98051005D01*
X165663047Y-98070680D01*
X165665466Y-98091426D01*
X165672109Y-98107140D01*
X165683180Y-98120520D01*
X165700319Y-98133982D01*
X165723393Y-98146798D01*
X165767766Y-98167022D01*
X165813402Y-98188484D01*
X165843079Y-98205789D01*
X165867097Y-98225264D01*
X165884667Y-98246908D01*
X165895835Y-98272063D01*
X165899755Y-98302857D01*
X165896300Y-98338782D01*
X165886847Y-98366501D01*
X165871276Y-98389962D01*
X165850473Y-98408602D01*
X165825351Y-98422363D01*
X165794780Y-98432025D01*
X165761667Y-98437344D01*
X165724255Y-98439206D01*
X165684442Y-98437703D01*
X165646292Y-98433265D01*
X165572690Y-98417878D01*
X165572690Y-98318843D01*
X165619535Y-98318843D01*
X165630258Y-98346707D01*
X165643078Y-98367272D01*
X165657790Y-98381974D01*
X165675707Y-98392410D01*
X165698538Y-98399139D01*
X165727588Y-98401593D01*
X165761312Y-98398002D01*
X165777080Y-98393147D01*
X165790719Y-98386034D01*
X165802242Y-98376239D01*
X165811278Y-98363295D01*
X165816875Y-98347779D01*
X165818929Y-98327349D01*
X165816346Y-98304449D01*
X165809355Y-98287641D01*
X165797703Y-98273454D01*
X165779734Y-98259602D01*
X165755543Y-98246428D01*
X165708953Y-98225365D01*
X165667909Y-98206470D01*
X165639112Y-98189932D01*
X165615326Y-98170853D01*
X165597780Y-98149284D01*
X165586628Y-98124156D01*
X165582734Y-98093761D01*
X165585183Y-98068304D01*
X165592282Y-98045781D01*
X165603977Y-98025587D01*
X165619773Y-98008227D01*
X165640009Y-97993467D01*
X165665441Y-97981306D01*
X165707711Y-97970024D01*
X165759645Y-97965961D01*
X165820596Y-97969081D01*
X165894498Y-97981177D01*
X165894498Y-98078117D01*
G37*
G36*
X166131462Y-97785417D02*
G01*
X166131462Y-97878424D01*
X166043456Y-97878424D01*
X166043456Y-97785417D01*
X166131462Y-97785417D01*
G37*
G36*
X165994686Y-98407577D02*
G01*
X166021229Y-98397575D01*
X166034608Y-98385607D01*
X166039205Y-98376746D01*
X166043199Y-98362184D01*
X166046319Y-98312987D01*
X166046319Y-98104618D01*
X166045379Y-98055421D01*
X166043056Y-98037872D01*
X166038668Y-98025544D01*
X166031472Y-98015771D01*
X166021229Y-98008832D01*
X165988019Y-97999514D01*
X165988019Y-97974168D01*
X166099405Y-97968697D01*
X166128599Y-97968697D01*
X166128599Y-98311278D01*
X166129776Y-98349352D01*
X166132403Y-98368553D01*
X166138149Y-98382966D01*
X166146978Y-98392959D01*
X166159750Y-98400204D01*
X166182155Y-98407577D01*
X166182155Y-98431000D01*
X165994686Y-98431000D01*
X165994686Y-98407577D01*
G37*
G36*
X166533353Y-97970157D02*
G01*
X166575018Y-97981872D01*
X166609290Y-98000336D01*
X166637448Y-98025544D01*
X166659320Y-98056499D01*
X166675716Y-98094327D01*
X166686266Y-98140443D01*
X166690064Y-98196600D01*
X166686855Y-98249067D01*
X166677858Y-98293301D01*
X166663777Y-98330597D01*
X166643395Y-98364457D01*
X166618631Y-98391379D01*
X166589192Y-98412193D01*
X166556000Y-98426874D01*
X166518203Y-98436010D01*
X166474898Y-98439206D01*
X166425590Y-98435108D01*
X166384860Y-98423630D01*
X166351085Y-98405472D01*
X166323077Y-98380606D01*
X166301477Y-98350150D01*
X166285151Y-98312219D01*
X166274558Y-98265203D01*
X166270717Y-98207114D01*
X166271361Y-98197070D01*
X166361075Y-98197070D01*
X166365183Y-98262544D01*
X166376144Y-98311943D01*
X166392405Y-98348677D01*
X166410298Y-98372386D01*
X166430813Y-98388554D01*
X166454419Y-98398240D01*
X166482079Y-98401593D01*
X166512252Y-98397547D01*
X166536576Y-98386034D01*
X166556764Y-98368011D01*
X166573163Y-98344147D01*
X166585081Y-98316322D01*
X166593466Y-98283068D01*
X166598120Y-98247855D01*
X166599706Y-98210491D01*
X166595435Y-98143292D01*
X166584148Y-98093633D01*
X166571727Y-98063786D01*
X166557560Y-98041507D01*
X166541833Y-98025373D01*
X166523051Y-98013218D01*
X166502823Y-98006016D01*
X166480626Y-98003575D01*
X166453045Y-98006801D01*
X166429625Y-98016084D01*
X166409405Y-98031479D01*
X166391892Y-98053882D01*
X166375847Y-98088848D01*
X166365092Y-98135532D01*
X166361075Y-98197070D01*
X166271361Y-98197070D01*
X166274057Y-98155038D01*
X166283445Y-98110968D01*
X166298201Y-98073629D01*
X166319280Y-98039729D01*
X166344302Y-98012993D01*
X166373513Y-97992547D01*
X166406323Y-97977969D01*
X166442443Y-97969040D01*
X166482549Y-97965961D01*
X166533353Y-97970157D01*
G37*
G36*
X167252384Y-98431000D02*
G01*
X167063975Y-98431000D01*
X167063975Y-98407577D01*
X167090732Y-98397532D01*
X167104367Y-98385564D01*
X167108955Y-98376672D01*
X167112958Y-98361885D01*
X167116079Y-98313329D01*
X167116079Y-98187966D01*
X167114155Y-98127229D01*
X167107701Y-98082520D01*
X167096716Y-98055250D01*
X167081414Y-98038495D01*
X167061069Y-98027468D01*
X167048666Y-98024541D01*
X167030978Y-98023407D01*
X167012777Y-98025274D01*
X166995587Y-98030844D01*
X166978988Y-98040272D01*
X166958786Y-98056404D01*
X166940860Y-98075174D01*
X166929593Y-98092265D01*
X166922880Y-98110917D01*
X166920532Y-98132956D01*
X166920532Y-98311406D01*
X166921710Y-98349437D01*
X166924336Y-98368595D01*
X166930082Y-98383009D01*
X166938911Y-98393001D01*
X166951679Y-98400215D01*
X166974088Y-98407577D01*
X166974088Y-98431000D01*
X166786619Y-98431000D01*
X166786619Y-98407577D01*
X166813162Y-98397575D01*
X166826541Y-98385607D01*
X166831138Y-98376746D01*
X166835132Y-98362184D01*
X166838252Y-98312945D01*
X166838252Y-98104618D01*
X166837312Y-98055421D01*
X166834989Y-98037872D01*
X166830601Y-98025544D01*
X166823405Y-98015771D01*
X166813162Y-98008832D01*
X166779952Y-97999514D01*
X166779952Y-97974168D01*
X166891809Y-97968697D01*
X166921002Y-97968697D01*
X166915744Y-98047300D01*
X166922412Y-98049224D01*
X166956658Y-98016455D01*
X166979559Y-97998018D01*
X167001741Y-97984281D01*
X167023541Y-97974339D01*
X167046335Y-97968078D01*
X167070686Y-97965961D01*
X167095710Y-97967534D01*
X167116805Y-97971945D01*
X167136083Y-97979615D01*
X167152666Y-97990367D01*
X167166765Y-98004204D01*
X167178269Y-98021227D01*
X167186831Y-98040862D01*
X167193314Y-98065508D01*
X167196958Y-98093049D01*
X167198358Y-98131033D01*
X167198358Y-98311406D01*
X167200239Y-98359235D01*
X167206949Y-98382230D01*
X167220798Y-98395865D01*
X167252384Y-98407577D01*
X167252384Y-98431000D01*
G37*
G36*
X167594230Y-97970107D02*
G01*
X167625697Y-97981006D01*
X167650638Y-97999900D01*
X167668696Y-98027126D01*
X167678868Y-98062377D01*
X167683058Y-98120817D01*
X167683058Y-98287128D01*
X167683528Y-98337094D01*
X167686434Y-98364107D01*
X167693572Y-98383940D01*
X167707677Y-98396592D01*
X167738067Y-98407577D01*
X167738067Y-98431000D01*
X167607062Y-98431000D01*
X167609455Y-98363124D01*
X167602274Y-98361244D01*
X167559932Y-98399102D01*
X167524056Y-98421511D01*
X167486427Y-98434769D01*
X167446393Y-98439206D01*
X167411554Y-98435541D01*
X167382279Y-98425101D01*
X167357666Y-98407966D01*
X167339750Y-98385351D01*
X167328742Y-98358186D01*
X167324918Y-98326152D01*
X167326470Y-98314227D01*
X167407625Y-98314227D01*
X167410626Y-98339648D01*
X167418610Y-98357397D01*
X167431202Y-98370867D01*
X167446350Y-98379196D01*
X167464003Y-98383584D01*
X167486058Y-98385180D01*
X167517279Y-98381186D01*
X167545128Y-98369408D01*
X167568947Y-98351279D01*
X167586460Y-98329358D01*
X167597748Y-98304658D01*
X167601291Y-98281273D01*
X167601291Y-98214210D01*
X167536391Y-98217489D01*
X167489268Y-98226271D01*
X167455924Y-98238957D01*
X167434153Y-98253565D01*
X167419444Y-98270636D01*
X167410668Y-98290552D01*
X167407625Y-98314227D01*
X167326470Y-98314227D01*
X167329185Y-98293363D01*
X167341616Y-98265098D01*
X167362655Y-98240200D01*
X167393990Y-98218185D01*
X167428243Y-98202786D01*
X167472724Y-98189762D01*
X167529599Y-98179817D01*
X167601291Y-98173861D01*
X167601291Y-98142830D01*
X167598571Y-98095826D01*
X167591717Y-98064483D01*
X167579024Y-98039068D01*
X167561626Y-98022424D01*
X167538803Y-98012692D01*
X167506617Y-98009046D01*
X167482460Y-98011380D01*
X167462767Y-98017922D01*
X167446606Y-98028365D01*
X167427381Y-98051392D01*
X167412412Y-98086324D01*
X167349795Y-98086324D01*
X167349795Y-98025330D01*
X167426304Y-97990153D01*
X167487511Y-97972415D01*
X167518318Y-97967578D01*
X167549658Y-97965961D01*
X167594230Y-97970107D01*
G37*
G36*
X167938743Y-98311534D02*
G01*
X167939921Y-98349491D01*
X167942547Y-98368638D01*
X167948301Y-98383011D01*
X167957165Y-98393001D01*
X167969933Y-98400240D01*
X167992300Y-98407577D01*
X167992300Y-98431000D01*
X167802480Y-98431000D01*
X167802480Y-98407619D01*
X167824350Y-98400627D01*
X167835691Y-98394711D01*
X167843829Y-98387258D01*
X167849112Y-98378725D01*
X167854840Y-98353422D01*
X167856507Y-98311662D01*
X167856507Y-97912063D01*
X167855780Y-97848077D01*
X167851933Y-97817260D01*
X167843342Y-97797470D01*
X167828510Y-97786015D01*
X167794829Y-97777424D01*
X167794829Y-97752591D01*
X167910063Y-97747120D01*
X167938743Y-97747120D01*
X167938743Y-98311534D01*
G37*
G36*
X168397499Y-98078117D02*
G01*
X168351593Y-98078117D01*
X168339574Y-98051705D01*
X168326717Y-98033281D01*
X168311161Y-98019143D01*
X168294190Y-98010242D01*
X168274881Y-98005378D01*
X168249738Y-98003575D01*
X168224816Y-98005787D01*
X168204823Y-98011923D01*
X168188744Y-98021569D01*
X168176189Y-98034926D01*
X168168676Y-98051005D01*
X168166048Y-98070680D01*
X168168466Y-98091426D01*
X168175109Y-98107140D01*
X168186181Y-98120520D01*
X168203319Y-98133982D01*
X168226394Y-98146798D01*
X168270767Y-98167022D01*
X168316403Y-98188484D01*
X168346079Y-98205789D01*
X168370098Y-98225264D01*
X168387668Y-98246908D01*
X168398836Y-98272063D01*
X168402756Y-98302857D01*
X168399301Y-98338782D01*
X168389848Y-98366501D01*
X168374277Y-98389962D01*
X168353474Y-98408602D01*
X168328352Y-98422363D01*
X168297780Y-98432025D01*
X168264668Y-98437344D01*
X168227255Y-98439206D01*
X168187443Y-98437703D01*
X168149293Y-98433265D01*
X168075690Y-98417878D01*
X168075690Y-98318843D01*
X168122536Y-98318843D01*
X168133259Y-98346707D01*
X168146079Y-98367272D01*
X168160791Y-98381974D01*
X168178707Y-98392410D01*
X168201539Y-98399139D01*
X168230589Y-98401593D01*
X168264313Y-98398002D01*
X168280081Y-98393147D01*
X168293720Y-98386034D01*
X168305243Y-98376239D01*
X168314279Y-98363295D01*
X168319876Y-98347779D01*
X168321930Y-98327349D01*
X168319346Y-98304449D01*
X168312356Y-98287641D01*
X168300703Y-98273454D01*
X168282735Y-98259602D01*
X168258544Y-98246428D01*
X168211953Y-98225365D01*
X168170910Y-98206470D01*
X168142112Y-98189932D01*
X168118327Y-98170853D01*
X168100780Y-98149284D01*
X168089629Y-98124156D01*
X168085735Y-98093761D01*
X168088184Y-98068304D01*
X168095282Y-98045781D01*
X168106978Y-98025587D01*
X168122773Y-98008227D01*
X168143010Y-97993467D01*
X168168442Y-97981306D01*
X168210712Y-97970024D01*
X168262646Y-97965961D01*
X168323597Y-97969081D01*
X168397499Y-97981177D01*
X168397499Y-98078117D01*
G37*
G36*
X168833600Y-98048753D02*
G01*
X168835524Y-98049224D01*
X168868191Y-98017272D01*
X168891217Y-97998531D01*
X168914067Y-97984450D01*
X168937123Y-97974339D01*
X168961564Y-97968116D01*
X168989012Y-97965961D01*
X169022280Y-97969011D01*
X169051252Y-97977780D01*
X169076762Y-97992077D01*
X169098597Y-98011613D01*
X169117417Y-98037346D01*
X169133183Y-98070424D01*
X169143764Y-98105774D01*
X169150604Y-98147999D01*
X169153058Y-98198267D01*
X169150155Y-98249980D01*
X169142035Y-98293565D01*
X169129378Y-98330255D01*
X169110708Y-98363794D01*
X169087516Y-98390659D01*
X169059537Y-98411680D01*
X169027739Y-98426673D01*
X168991620Y-98435963D01*
X168950287Y-98439206D01*
X168915492Y-98437552D01*
X168883566Y-98432752D01*
X168852227Y-98424157D01*
X168817828Y-98410184D01*
X168784361Y-98439206D01*
X168751364Y-98431000D01*
X168751364Y-98132144D01*
X168833600Y-98132144D01*
X168833600Y-98259175D01*
X168836934Y-98317946D01*
X168841651Y-98338591D01*
X168848176Y-98354148D01*
X168857638Y-98367658D01*
X168871128Y-98380521D01*
X168887111Y-98390644D01*
X168904852Y-98397062D01*
X168946483Y-98401593D01*
X168974010Y-98398520D01*
X168997100Y-98389745D01*
X169016737Y-98375346D01*
X169033464Y-98354619D01*
X169048732Y-98321795D01*
X169059166Y-98276087D01*
X169063128Y-98213697D01*
X169059496Y-98150456D01*
X169049959Y-98104196D01*
X169036114Y-98071108D01*
X169020559Y-98049891D01*
X169002197Y-98035313D01*
X168980541Y-98026491D01*
X168954604Y-98023407D01*
X168928574Y-98025647D01*
X168908186Y-98031785D01*
X168889657Y-98042134D01*
X168870188Y-98057857D01*
X168853290Y-98076102D01*
X168842448Y-98092821D01*
X168835883Y-98110974D01*
X168833600Y-98132144D01*
X168751364Y-98132144D01*
X168751364Y-97912063D01*
X168750637Y-97848077D01*
X168746833Y-97817260D01*
X168738199Y-97797470D01*
X168723410Y-97786015D01*
X168689686Y-97777424D01*
X168689686Y-97752591D01*
X168805390Y-97747120D01*
X168833600Y-97747120D01*
X168833600Y-98048753D01*
G37*
G36*
X169237816Y-97974168D02*
G01*
X169374079Y-97974168D01*
X169374079Y-98217672D01*
X169375336Y-98270255D01*
X169378396Y-98302815D01*
X169384253Y-98329986D01*
X169391304Y-98346840D01*
X169401561Y-98360341D01*
X169415668Y-98371716D01*
X169433350Y-98378984D01*
X169459222Y-98381760D01*
X169477024Y-98379976D01*
X169494100Y-98374622D01*
X169510813Y-98365421D01*
X169531414Y-98349532D01*
X169549658Y-98330896D01*
X169560821Y-98313885D01*
X169567363Y-98295149D01*
X169569669Y-98272681D01*
X169569669Y-98093077D01*
X169568216Y-98051874D01*
X169563428Y-98029605D01*
X169555564Y-98015970D01*
X169542656Y-98006396D01*
X169515642Y-97997291D01*
X169515642Y-97974168D01*
X169651905Y-97974168D01*
X169651905Y-98300549D01*
X169653316Y-98353593D01*
X169659556Y-98379409D01*
X169665573Y-98387965D01*
X169674388Y-98394925D01*
X169686547Y-98400139D01*
X169710249Y-98406166D01*
X169710249Y-98431000D01*
X169600743Y-98436471D01*
X169571592Y-98436471D01*
X169574456Y-98357867D01*
X169567275Y-98355944D01*
X169526719Y-98394723D01*
X169491450Y-98419117D01*
X169454735Y-98434342D01*
X169419044Y-98439206D01*
X169378097Y-98434590D01*
X169347322Y-98421981D01*
X169322985Y-98400870D01*
X169305221Y-98370562D01*
X169295330Y-98332640D01*
X169291372Y-98274135D01*
X169291372Y-98093291D01*
X169288252Y-98038068D01*
X169283541Y-98024225D01*
X169276284Y-98014132D01*
X169264439Y-98006552D01*
X169237816Y-97997591D01*
X169237816Y-97974168D01*
G37*
G36*
X169926996Y-97785417D02*
G01*
X169926996Y-97878424D01*
X169838989Y-97878424D01*
X169838989Y-97785417D01*
X169926996Y-97785417D01*
G37*
G36*
X169790220Y-98407577D02*
G01*
X169816763Y-98397575D01*
X169830142Y-98385607D01*
X169834739Y-98376746D01*
X169838733Y-98362184D01*
X169841853Y-98312987D01*
X169841853Y-98104618D01*
X169840913Y-98055421D01*
X169838590Y-98037872D01*
X169834202Y-98025544D01*
X169827005Y-98015771D01*
X169816763Y-98008832D01*
X169783552Y-97999514D01*
X169783552Y-97974168D01*
X169894939Y-97968697D01*
X169924132Y-97968697D01*
X169924132Y-98311278D01*
X169925310Y-98349352D01*
X169927937Y-98368553D01*
X169933683Y-98382966D01*
X169942512Y-98392959D01*
X169955284Y-98400204D01*
X169977689Y-98407577D01*
X169977689Y-98431000D01*
X169790220Y-98431000D01*
X169790220Y-98407577D01*
G37*
G36*
X170190076Y-98311534D02*
G01*
X170191254Y-98349491D01*
X170193880Y-98368638D01*
X170199633Y-98383011D01*
X170208498Y-98393001D01*
X170221266Y-98400240D01*
X170243633Y-98407577D01*
X170243633Y-98431000D01*
X170053813Y-98431000D01*
X170053813Y-98407619D01*
X170075683Y-98400627D01*
X170087024Y-98394711D01*
X170095162Y-98387258D01*
X170100445Y-98378725D01*
X170106173Y-98353422D01*
X170107840Y-98311662D01*
X170107840Y-97912063D01*
X170107113Y-97848077D01*
X170103266Y-97817260D01*
X170094675Y-97797470D01*
X170079843Y-97786015D01*
X170046162Y-97777424D01*
X170046162Y-97752591D01*
X170161396Y-97747120D01*
X170190076Y-97747120D01*
X170190076Y-98311534D01*
G37*
G36*
X170299754Y-97998360D02*
G01*
X170322175Y-97992847D01*
X170338478Y-97985024D01*
X170351732Y-97974045D01*
X170361687Y-97960405D01*
X170368901Y-97944186D01*
X170374809Y-97922706D01*
X170384854Y-97856540D01*
X170452772Y-97856540D01*
X170452772Y-97974168D01*
X170607243Y-97974168D01*
X170607243Y-98022723D01*
X170452772Y-98022723D01*
X170452772Y-98235752D01*
X170456576Y-98309696D01*
X170462464Y-98335333D01*
X170470937Y-98352781D01*
X170482512Y-98366446D01*
X170494830Y-98375050D01*
X170509400Y-98379932D01*
X170529281Y-98381760D01*
X170547875Y-98379810D01*
X170565142Y-98374024D01*
X170581422Y-98364780D01*
X170598139Y-98351669D01*
X170619638Y-98377657D01*
X170585187Y-98406616D01*
X170555311Y-98424631D01*
X170524292Y-98435594D01*
X170492479Y-98439206D01*
X170453000Y-98434687D01*
X170423164Y-98422299D01*
X170400626Y-98402618D01*
X170385050Y-98376409D01*
X170374529Y-98339403D01*
X170370535Y-98288111D01*
X170370535Y-98022723D01*
X170299754Y-98022723D01*
X170299754Y-97998360D01*
G37*
G36*
X170846174Y-97998360D02*
G01*
X170868595Y-97992847D01*
X170884898Y-97985024D01*
X170898152Y-97974045D01*
X170908107Y-97960405D01*
X170915321Y-97944186D01*
X170921229Y-97922706D01*
X170931274Y-97856540D01*
X170999192Y-97856540D01*
X170999192Y-97974168D01*
X171153663Y-97974168D01*
X171153663Y-98022723D01*
X170999192Y-98022723D01*
X170999192Y-98235752D01*
X171002996Y-98309696D01*
X171008884Y-98335333D01*
X171017357Y-98352781D01*
X171028933Y-98366446D01*
X171041250Y-98375050D01*
X171055820Y-98379932D01*
X171075701Y-98381760D01*
X171094295Y-98379810D01*
X171111562Y-98374024D01*
X171127842Y-98364780D01*
X171144559Y-98351669D01*
X171166058Y-98377657D01*
X171131607Y-98406616D01*
X171101731Y-98424631D01*
X171070713Y-98435594D01*
X171038900Y-98439206D01*
X170999420Y-98434687D01*
X170969584Y-98422299D01*
X170947046Y-98402618D01*
X170931470Y-98376409D01*
X170920950Y-98339403D01*
X170916955Y-98288111D01*
X170916955Y-98022723D01*
X170846174Y-98022723D01*
X170846174Y-97998360D01*
G37*
G36*
X171333994Y-98048753D02*
G01*
X171335917Y-98049224D01*
X171371872Y-98014865D01*
X171394987Y-97996351D01*
X171417054Y-97982897D01*
X171438029Y-97973612D01*
X171459878Y-97967909D01*
X171483678Y-97965961D01*
X171509136Y-97967603D01*
X171530524Y-97972202D01*
X171550009Y-97980105D01*
X171566641Y-97991094D01*
X171580696Y-98005114D01*
X171591987Y-98022168D01*
X171600316Y-98041757D01*
X171606563Y-98066192D01*
X171610022Y-98093486D01*
X171611350Y-98131033D01*
X171611350Y-98311406D01*
X171612478Y-98349740D01*
X171614940Y-98368125D01*
X171620136Y-98381816D01*
X171627848Y-98391548D01*
X171639863Y-98398851D01*
X171665376Y-98407577D01*
X171665376Y-98431000D01*
X171477010Y-98431000D01*
X171477010Y-98407577D01*
X171503767Y-98397532D01*
X171517402Y-98385564D01*
X171521990Y-98376672D01*
X171525993Y-98361885D01*
X171529113Y-98313329D01*
X171529113Y-98187966D01*
X171527239Y-98128101D01*
X171522659Y-98090641D01*
X171512585Y-98060159D01*
X171497313Y-98040162D01*
X171475674Y-98027926D01*
X171444483Y-98023407D01*
X171426006Y-98025142D01*
X171410033Y-98030118D01*
X171394609Y-98038706D01*
X171374642Y-98054011D01*
X171356579Y-98072013D01*
X171344295Y-98089444D01*
X171336559Y-98108245D01*
X171333994Y-98128169D01*
X171333994Y-98311406D01*
X171335661Y-98357824D01*
X171342158Y-98381034D01*
X171348113Y-98389431D01*
X171356733Y-98396335D01*
X171387080Y-98407577D01*
X171387080Y-98431000D01*
X171197731Y-98431000D01*
X171197731Y-98407577D01*
X171227821Y-98396592D01*
X171241926Y-98383256D01*
X171249364Y-98359876D01*
X171251757Y-98311620D01*
X171251757Y-97912020D01*
X171251031Y-97848077D01*
X171247226Y-97817260D01*
X171238592Y-97797470D01*
X171223804Y-97786015D01*
X171190080Y-97777424D01*
X171190080Y-97752591D01*
X171305314Y-97747120D01*
X171333994Y-97747120D01*
X171333994Y-98048753D01*
G37*
G36*
X172003075Y-97970090D02*
G01*
X172039245Y-97981434D01*
X172070120Y-97999977D01*
X172093485Y-98023663D01*
X172111090Y-98052980D01*
X172125072Y-98091282D01*
X172133491Y-98135258D01*
X172137766Y-98197796D01*
X171836517Y-98197796D01*
X171836517Y-98206174D01*
X171839933Y-98258747D01*
X171849169Y-98299566D01*
X171859707Y-98323929D01*
X171873545Y-98343853D01*
X171890758Y-98359961D01*
X171911103Y-98371698D01*
X171935845Y-98379109D01*
X171966070Y-98381760D01*
X172003870Y-98377958D01*
X172036595Y-98367014D01*
X172066759Y-98348429D01*
X172099042Y-98318843D01*
X172128192Y-98350302D01*
X172097568Y-98379984D01*
X172071986Y-98400481D01*
X172045264Y-98416631D01*
X172015822Y-98428948D01*
X171984217Y-98436557D01*
X171948417Y-98439206D01*
X171899617Y-98435062D01*
X171859616Y-98423484D01*
X171826711Y-98405195D01*
X171799673Y-98380136D01*
X171779051Y-98349609D01*
X171763388Y-98311505D01*
X171753195Y-98264197D01*
X171749494Y-98205704D01*
X171752506Y-98158728D01*
X171752772Y-98157448D01*
X171838911Y-98157448D01*
X172047879Y-98157448D01*
X172042829Y-98107645D01*
X172034928Y-98072048D01*
X172021903Y-98041921D01*
X172004837Y-98021227D01*
X171982301Y-98008213D01*
X171952221Y-98003575D01*
X171921367Y-98008039D01*
X171895585Y-98020999D01*
X171873575Y-98043111D01*
X171857669Y-98071001D01*
X171845797Y-98108293D01*
X171838911Y-98157448D01*
X171752772Y-98157448D01*
X171761154Y-98117039D01*
X171775054Y-98079870D01*
X171794878Y-98045768D01*
X171819100Y-98017924D01*
X171847972Y-97995624D01*
X171880667Y-97979323D01*
X171916752Y-97969385D01*
X171957008Y-97965961D01*
X172003075Y-97970090D01*
G37*
G36*
X172424740Y-97777210D02*
G01*
X172942137Y-97777210D01*
X172942137Y-97944077D01*
X172895292Y-97944077D01*
X172874476Y-97878980D01*
X172863286Y-97856890D01*
X172852720Y-97842606D01*
X172840563Y-97831734D01*
X172828101Y-97824868D01*
X172813243Y-97821148D01*
X172788649Y-97819611D01*
X172727912Y-97819611D01*
X172727912Y-98309910D01*
X172731032Y-98354918D01*
X172735222Y-98370587D01*
X172740607Y-98381504D01*
X172748143Y-98390179D01*
X172758046Y-98396806D01*
X172792496Y-98407577D01*
X172792496Y-98431000D01*
X172573954Y-98431000D01*
X172573954Y-98407534D01*
X172599300Y-98400396D01*
X172617209Y-98391035D01*
X172628707Y-98376930D01*
X172635845Y-98353465D01*
X172638495Y-98309867D01*
X172638495Y-97819611D01*
X172578271Y-97819611D01*
X172556804Y-97820804D01*
X172541170Y-97823928D01*
X172527460Y-97830356D01*
X172514157Y-97841880D01*
X172502869Y-97857401D01*
X172491461Y-97880647D01*
X172472098Y-97944077D01*
X172424740Y-97944077D01*
X172424740Y-97777210D01*
G37*
G36*
X173156961Y-97785417D02*
G01*
X173156961Y-97878424D01*
X173068954Y-97878424D01*
X173068954Y-97785417D01*
X173156961Y-97785417D01*
G37*
G36*
X173020185Y-98407577D02*
G01*
X173046728Y-98397575D01*
X173060107Y-98385607D01*
X173064704Y-98376746D01*
X173068698Y-98362184D01*
X173071818Y-98312987D01*
X173071818Y-98104618D01*
X173070878Y-98055421D01*
X173068555Y-98037872D01*
X173064167Y-98025544D01*
X173056970Y-98015771D01*
X173046728Y-98008832D01*
X173013517Y-97999514D01*
X173013517Y-97974168D01*
X173124904Y-97968697D01*
X173154098Y-97968697D01*
X173154098Y-98311278D01*
X173155275Y-98349352D01*
X173157902Y-98368553D01*
X173163648Y-98382966D01*
X173172477Y-98392959D01*
X173185249Y-98400204D01*
X173207654Y-98407577D01*
X173207654Y-98431000D01*
X173020185Y-98431000D01*
X173020185Y-98407577D01*
G37*
G36*
X173263689Y-97998360D02*
G01*
X173286110Y-97992847D01*
X173302414Y-97985024D01*
X173315667Y-97974045D01*
X173325623Y-97960405D01*
X173332836Y-97944186D01*
X173338745Y-97922706D01*
X173348790Y-97856540D01*
X173416707Y-97856540D01*
X173416707Y-97974168D01*
X173571179Y-97974168D01*
X173571179Y-98022723D01*
X173416707Y-98022723D01*
X173416707Y-98235752D01*
X173420512Y-98309696D01*
X173426400Y-98335333D01*
X173434873Y-98352781D01*
X173446448Y-98366446D01*
X173458766Y-98375050D01*
X173473336Y-98379932D01*
X173493217Y-98381760D01*
X173511810Y-98379810D01*
X173529077Y-98374024D01*
X173545357Y-98364780D01*
X173562075Y-98351669D01*
X173583574Y-98377657D01*
X173549123Y-98406616D01*
X173519247Y-98424631D01*
X173488228Y-98435594D01*
X173456415Y-98439206D01*
X173416935Y-98434687D01*
X173387100Y-98422299D01*
X173364562Y-98402618D01*
X173348986Y-98376409D01*
X173338465Y-98339403D01*
X173334471Y-98288111D01*
X173334471Y-98022723D01*
X173263689Y-98022723D01*
X173263689Y-97998360D01*
G37*
G36*
X173884558Y-97970107D02*
G01*
X173916025Y-97981006D01*
X173940966Y-97999900D01*
X173959024Y-98027126D01*
X173969196Y-98062377D01*
X173973386Y-98120817D01*
X173973386Y-98287128D01*
X173973856Y-98337094D01*
X173976762Y-98364107D01*
X173983900Y-98383940D01*
X173998005Y-98396592D01*
X174028395Y-98407577D01*
X174028395Y-98431000D01*
X173897390Y-98431000D01*
X173899783Y-98363124D01*
X173892602Y-98361244D01*
X173850260Y-98399102D01*
X173814384Y-98421511D01*
X173776755Y-98434769D01*
X173736721Y-98439206D01*
X173701882Y-98435541D01*
X173672607Y-98425101D01*
X173647994Y-98407966D01*
X173630078Y-98385351D01*
X173619070Y-98358186D01*
X173615246Y-98326152D01*
X173616798Y-98314227D01*
X173697953Y-98314227D01*
X173700954Y-98339648D01*
X173708938Y-98357397D01*
X173721530Y-98370867D01*
X173736678Y-98379196D01*
X173754331Y-98383584D01*
X173776386Y-98385180D01*
X173807607Y-98381186D01*
X173835456Y-98369408D01*
X173859275Y-98351279D01*
X173876788Y-98329358D01*
X173888076Y-98304658D01*
X173891619Y-98281273D01*
X173891619Y-98214210D01*
X173826719Y-98217489D01*
X173779596Y-98226271D01*
X173746252Y-98238957D01*
X173724481Y-98253565D01*
X173709772Y-98270636D01*
X173700996Y-98290552D01*
X173697953Y-98314227D01*
X173616798Y-98314227D01*
X173619513Y-98293363D01*
X173631944Y-98265098D01*
X173652983Y-98240200D01*
X173684318Y-98218185D01*
X173718571Y-98202786D01*
X173763052Y-98189762D01*
X173819927Y-98179817D01*
X173891619Y-98173861D01*
X173891619Y-98142830D01*
X173888899Y-98095826D01*
X173882045Y-98064483D01*
X173869352Y-98039068D01*
X173851954Y-98022424D01*
X173829131Y-98012692D01*
X173796945Y-98009046D01*
X173772788Y-98011380D01*
X173753095Y-98017922D01*
X173736934Y-98028365D01*
X173717709Y-98051392D01*
X173702740Y-98086324D01*
X173640122Y-98086324D01*
X173640122Y-98025330D01*
X173716632Y-97990153D01*
X173777839Y-97972415D01*
X173808646Y-97967578D01*
X173839986Y-97965961D01*
X173884558Y-97970107D01*
G37*
G36*
X174567165Y-98431000D02*
G01*
X174378756Y-98431000D01*
X174378756Y-98407577D01*
X174405512Y-98397532D01*
X174419147Y-98385564D01*
X174423735Y-98376672D01*
X174427739Y-98361885D01*
X174430859Y-98313329D01*
X174430859Y-98187966D01*
X174428935Y-98127229D01*
X174422481Y-98082520D01*
X174411496Y-98055250D01*
X174396195Y-98038495D01*
X174375849Y-98027468D01*
X174363446Y-98024541D01*
X174345758Y-98023407D01*
X174327557Y-98025274D01*
X174310368Y-98030844D01*
X174293768Y-98040272D01*
X174273566Y-98056404D01*
X174255640Y-98075174D01*
X174244373Y-98092265D01*
X174237660Y-98110917D01*
X174235312Y-98132956D01*
X174235312Y-98311406D01*
X174236490Y-98349437D01*
X174239116Y-98368595D01*
X174244863Y-98383009D01*
X174253691Y-98393001D01*
X174266459Y-98400215D01*
X174288868Y-98407577D01*
X174288868Y-98431000D01*
X174101400Y-98431000D01*
X174101400Y-98407577D01*
X174127943Y-98397575D01*
X174141321Y-98385607D01*
X174145918Y-98376746D01*
X174149912Y-98362184D01*
X174153032Y-98312945D01*
X174153032Y-98104618D01*
X174152092Y-98055421D01*
X174149769Y-98037872D01*
X174145382Y-98025544D01*
X174138185Y-98015771D01*
X174127943Y-98008832D01*
X174094732Y-97999514D01*
X174094732Y-97974168D01*
X174206589Y-97968697D01*
X174235782Y-97968697D01*
X174230525Y-98047300D01*
X174237192Y-98049224D01*
X174271438Y-98016455D01*
X174294339Y-97998018D01*
X174316521Y-97984281D01*
X174338321Y-97974339D01*
X174361115Y-97968078D01*
X174385466Y-97965961D01*
X174410490Y-97967534D01*
X174431585Y-97971945D01*
X174450864Y-97979615D01*
X174467446Y-97990367D01*
X174481545Y-98004204D01*
X174493049Y-98021227D01*
X174501611Y-98040862D01*
X174508094Y-98065508D01*
X174511738Y-98093049D01*
X174513138Y-98131033D01*
X174513138Y-98311406D01*
X174515019Y-98359235D01*
X174521729Y-98382230D01*
X174535578Y-98395865D01*
X174567165Y-98407577D01*
X174567165Y-98431000D01*
G37*
G36*
X174784596Y-97785417D02*
G01*
X174784596Y-97878424D01*
X174696589Y-97878424D01*
X174696589Y-97785417D01*
X174784596Y-97785417D01*
G37*
G36*
X174647820Y-98407577D02*
G01*
X174674363Y-98397575D01*
X174687741Y-98385607D01*
X174692338Y-98376746D01*
X174696332Y-98362184D01*
X174699453Y-98312987D01*
X174699453Y-98104618D01*
X174698512Y-98055421D01*
X174696189Y-98037872D01*
X174691802Y-98025544D01*
X174684605Y-98015771D01*
X174674363Y-98008832D01*
X174641152Y-97999514D01*
X174641152Y-97974168D01*
X174752539Y-97968697D01*
X174781732Y-97968697D01*
X174781732Y-98311278D01*
X174782910Y-98349352D01*
X174785536Y-98368553D01*
X174791283Y-98382966D01*
X174800111Y-98392959D01*
X174812883Y-98400204D01*
X174835288Y-98407577D01*
X174835288Y-98431000D01*
X174647820Y-98431000D01*
X174647820Y-98407577D01*
G37*
G36*
X175276263Y-97985281D02*
G01*
X175276263Y-98086324D01*
X175215525Y-98086324D01*
X175205903Y-98056717D01*
X175195437Y-98036443D01*
X175182143Y-98020566D01*
X175167697Y-98010883D01*
X175150765Y-98005545D01*
X175128502Y-98003575D01*
X175106967Y-98005990D01*
X175087381Y-98013116D01*
X175069218Y-98025159D01*
X175053995Y-98040999D01*
X175040307Y-98062474D01*
X175028313Y-98090812D01*
X175017345Y-98137621D01*
X175013268Y-98198651D01*
X175014765Y-98238494D01*
X175018995Y-98273194D01*
X175027021Y-98305330D01*
X175038572Y-98330982D01*
X175054819Y-98352381D01*
X175075416Y-98368339D01*
X175100232Y-98378193D01*
X175132306Y-98381760D01*
X175164384Y-98378542D01*
X175193770Y-98369066D01*
X175221411Y-98352529D01*
X175252840Y-98324314D01*
X175280067Y-98355773D01*
X175237025Y-98396549D01*
X175197103Y-98420570D01*
X175155045Y-98434718D01*
X175109866Y-98439206D01*
X175065527Y-98435105D01*
X175028612Y-98423533D01*
X174997648Y-98404990D01*
X174971637Y-98379153D01*
X174951984Y-98348315D01*
X174937057Y-98310186D01*
X174927361Y-98263255D01*
X174923851Y-98205704D01*
X174926985Y-98159103D01*
X174936016Y-98117478D01*
X174950607Y-98080084D01*
X174971204Y-98045880D01*
X174996149Y-98017958D01*
X175025706Y-97995624D01*
X175059018Y-97979343D01*
X175095882Y-97969394D01*
X175137093Y-97965961D01*
X175175573Y-97967163D01*
X175209542Y-97970577D01*
X175276263Y-97985281D01*
G37*
G36*
X175453858Y-98318843D02*
G01*
X175453858Y-98431000D01*
X175357260Y-98431000D01*
X175357260Y-98318843D01*
X175453858Y-98318843D01*
G37*
G36*
X175601106Y-97747120D02*
G01*
X175570502Y-97971432D01*
X175520280Y-97971432D01*
X175507841Y-97747120D01*
X175601106Y-97747120D01*
G37*
G36*
X175762715Y-97747120D02*
G01*
X175732581Y-97971432D01*
X175681932Y-97971432D01*
X175669964Y-97747120D01*
X175762715Y-97747120D01*
G37*
D12*
X180398095Y-113544819D02*
X180398095Y-112544819D01*
X180398095Y-113021009D02*
X180969523Y-113021009D01*
X180969523Y-113544819D02*
X180969523Y-112544819D01*
X181874285Y-112878152D02*
X181874285Y-113544819D01*
X181636190Y-112497200D02*
X181398095Y-113211485D01*
X181398095Y-113211485D02*
X182017142Y-113211485D01*
X169086665Y-99294819D02*
X169086665Y-100009104D01*
X169086665Y-100009104D02*
X169039046Y-100151961D01*
X169039046Y-100151961D02*
X168943808Y-100247200D01*
X168943808Y-100247200D02*
X168800951Y-100294819D01*
X168800951Y-100294819D02*
X168705713Y-100294819D01*
X169610475Y-100294819D02*
X169800951Y-100294819D01*
X169800951Y-100294819D02*
X169896189Y-100247200D01*
X169896189Y-100247200D02*
X169943808Y-100199580D01*
X169943808Y-100199580D02*
X170039046Y-100056723D01*
X170039046Y-100056723D02*
X170086665Y-99866247D01*
X170086665Y-99866247D02*
X170086665Y-99485295D01*
X170086665Y-99485295D02*
X170039046Y-99390057D01*
X170039046Y-99390057D02*
X169991427Y-99342438D01*
X169991427Y-99342438D02*
X169896189Y-99294819D01*
X169896189Y-99294819D02*
X169705713Y-99294819D01*
X169705713Y-99294819D02*
X169610475Y-99342438D01*
X169610475Y-99342438D02*
X169562856Y-99390057D01*
X169562856Y-99390057D02*
X169515237Y-99485295D01*
X169515237Y-99485295D02*
X169515237Y-99723390D01*
X169515237Y-99723390D02*
X169562856Y-99818628D01*
X169562856Y-99818628D02*
X169610475Y-99866247D01*
X169610475Y-99866247D02*
X169705713Y-99913866D01*
X169705713Y-99913866D02*
X169896189Y-99913866D01*
X169896189Y-99913866D02*
X169991427Y-99866247D01*
X169991427Y-99866247D02*
X170039046Y-99818628D01*
X170039046Y-99818628D02*
X170086665Y-99723390D01*
X156238095Y-104284819D02*
X156238095Y-103284819D01*
X156238095Y-103761009D02*
X156809523Y-103761009D01*
X156809523Y-104284819D02*
X156809523Y-103284819D01*
X157190476Y-103284819D02*
X157809523Y-103284819D01*
X157809523Y-103284819D02*
X157476190Y-103665771D01*
X157476190Y-103665771D02*
X157619047Y-103665771D01*
X157619047Y-103665771D02*
X157714285Y-103713390D01*
X157714285Y-103713390D02*
X157761904Y-103761009D01*
X157761904Y-103761009D02*
X157809523Y-103856247D01*
X157809523Y-103856247D02*
X157809523Y-104094342D01*
X157809523Y-104094342D02*
X157761904Y-104189580D01*
X157761904Y-104189580D02*
X157714285Y-104237200D01*
X157714285Y-104237200D02*
X157619047Y-104284819D01*
X157619047Y-104284819D02*
X157333333Y-104284819D01*
X157333333Y-104284819D02*
X157238095Y-104237200D01*
X157238095Y-104237200D02*
X157190476Y-104189580D01*
X159430952Y-109479580D02*
X159383333Y-109527200D01*
X159383333Y-109527200D02*
X159240476Y-109574819D01*
X159240476Y-109574819D02*
X159145238Y-109574819D01*
X159145238Y-109574819D02*
X159002381Y-109527200D01*
X159002381Y-109527200D02*
X158907143Y-109431961D01*
X158907143Y-109431961D02*
X158859524Y-109336723D01*
X158859524Y-109336723D02*
X158811905Y-109146247D01*
X158811905Y-109146247D02*
X158811905Y-109003390D01*
X158811905Y-109003390D02*
X158859524Y-108812914D01*
X158859524Y-108812914D02*
X158907143Y-108717676D01*
X158907143Y-108717676D02*
X159002381Y-108622438D01*
X159002381Y-108622438D02*
X159145238Y-108574819D01*
X159145238Y-108574819D02*
X159240476Y-108574819D01*
X159240476Y-108574819D02*
X159383333Y-108622438D01*
X159383333Y-108622438D02*
X159430952Y-108670057D01*
X160383333Y-109574819D02*
X159811905Y-109574819D01*
X160097619Y-109574819D02*
X160097619Y-108574819D01*
X160097619Y-108574819D02*
X160002381Y-108717676D01*
X160002381Y-108717676D02*
X159907143Y-108812914D01*
X159907143Y-108812914D02*
X159811905Y-108860533D01*
X160859524Y-109574819D02*
X161050000Y-109574819D01*
X161050000Y-109574819D02*
X161145238Y-109527200D01*
X161145238Y-109527200D02*
X161192857Y-109479580D01*
X161192857Y-109479580D02*
X161288095Y-109336723D01*
X161288095Y-109336723D02*
X161335714Y-109146247D01*
X161335714Y-109146247D02*
X161335714Y-108765295D01*
X161335714Y-108765295D02*
X161288095Y-108670057D01*
X161288095Y-108670057D02*
X161240476Y-108622438D01*
X161240476Y-108622438D02*
X161145238Y-108574819D01*
X161145238Y-108574819D02*
X160954762Y-108574819D01*
X160954762Y-108574819D02*
X160859524Y-108622438D01*
X160859524Y-108622438D02*
X160811905Y-108670057D01*
X160811905Y-108670057D02*
X160764286Y-108765295D01*
X160764286Y-108765295D02*
X160764286Y-109003390D01*
X160764286Y-109003390D02*
X160811905Y-109098628D01*
X160811905Y-109098628D02*
X160859524Y-109146247D01*
X160859524Y-109146247D02*
X160954762Y-109193866D01*
X160954762Y-109193866D02*
X161145238Y-109193866D01*
X161145238Y-109193866D02*
X161240476Y-109146247D01*
X161240476Y-109146247D02*
X161288095Y-109098628D01*
X161288095Y-109098628D02*
X161335714Y-109003390D01*
X161669048Y-108574819D02*
X162288095Y-108574819D01*
X162288095Y-108574819D02*
X161954762Y-108955771D01*
X161954762Y-108955771D02*
X162097619Y-108955771D01*
X162097619Y-108955771D02*
X162192857Y-109003390D01*
X162192857Y-109003390D02*
X162240476Y-109051009D01*
X162240476Y-109051009D02*
X162288095Y-109146247D01*
X162288095Y-109146247D02*
X162288095Y-109384342D01*
X162288095Y-109384342D02*
X162240476Y-109479580D01*
X162240476Y-109479580D02*
X162192857Y-109527200D01*
X162192857Y-109527200D02*
X162097619Y-109574819D01*
X162097619Y-109574819D02*
X161811905Y-109574819D01*
X161811905Y-109574819D02*
X161716667Y-109527200D01*
X161716667Y-109527200D02*
X161669048Y-109479580D01*
X180238095Y-104284819D02*
X180238095Y-103284819D01*
X180238095Y-103761009D02*
X180809523Y-103761009D01*
X180809523Y-104284819D02*
X180809523Y-103284819D01*
X181809523Y-104284819D02*
X181238095Y-104284819D01*
X181523809Y-104284819D02*
X181523809Y-103284819D01*
X181523809Y-103284819D02*
X181428571Y-103427676D01*
X181428571Y-103427676D02*
X181333333Y-103522914D01*
X181333333Y-103522914D02*
X181238095Y-103570533D01*
X156238095Y-113624819D02*
X156238095Y-112624819D01*
X156238095Y-113101009D02*
X156809523Y-113101009D01*
X156809523Y-113624819D02*
X156809523Y-112624819D01*
X157238095Y-112720057D02*
X157285714Y-112672438D01*
X157285714Y-112672438D02*
X157380952Y-112624819D01*
X157380952Y-112624819D02*
X157619047Y-112624819D01*
X157619047Y-112624819D02*
X157714285Y-112672438D01*
X157714285Y-112672438D02*
X157761904Y-112720057D01*
X157761904Y-112720057D02*
X157809523Y-112815295D01*
X157809523Y-112815295D02*
X157809523Y-112910533D01*
X157809523Y-112910533D02*
X157761904Y-113053390D01*
X157761904Y-113053390D02*
X157190476Y-113624819D01*
X157190476Y-113624819D02*
X157809523Y-113624819D01*
%TO.C,J9*%
D13*
X162295299Y-101085800D02*
X162295299Y-105377961D01*
X162295299Y-107542041D02*
X162295299Y-115026359D01*
X164001239Y-117037000D02*
X174838759Y-117037000D01*
X168947159Y-101085800D02*
X164492839Y-101085800D01*
X171247157Y-101085800D02*
X171092841Y-101085800D01*
X176544699Y-101085800D02*
X173392839Y-101085800D01*
X176544699Y-115026359D02*
X176544699Y-101085800D01*
D14*
X178703699Y-113310000D02*
G75*
G02*
X177941699Y-113310000I-381000J0D01*
G01*
X177941699Y-113310000D02*
G75*
G02*
X178703699Y-113310000I381000J0D01*
G01*
%TO.C,C193*%
D15*
X160270000Y-111590580D02*
X160270000Y-111309420D01*
X161290000Y-111590580D02*
X161290000Y-111309420D01*
%TD*%
M02*
